<svg width="69" height="43" viewBox="0 0 69 43" fill="none" xmlns="http://www.w3.org/2000/svg"><path d="M55.79 6.566c0 .902.308 1.573.924 2.013.616.418 1.331.781 2.145 1.089a9.75 9.75 0 012.541 1.386c.77.55 1.155 1.463 1.155 2.739v5.313c-.066 1.122-.473 2.057-1.22 2.805-.727.726-1.64 1.089-2.74 1.089H55.79c-.836 0-1.705-.231-2.607-.693-.902-.484-1.353-1.21-1.353-2.178v-6.336h3.96v6.468c0 .616.231 1.034.693 1.254.484.22.957.231 1.42.033.461-.22.692-.649.692-1.287v-6.633c0-.968-.363-1.705-1.089-2.211a10.11 10.11 0 00-2.277-1.287c-2.266-.748-3.399-2.321-3.399-4.719V3.86c0-1.056.396-1.947 1.188-2.673C53.832.461 54.756.098 55.79.098h2.805c.836 0 1.705.242 2.607.726.902.484 1.353 1.199 1.353 2.145v3.993h-3.96V2.837c0-.638-.23-1.067-.693-1.287-.462-.22-.935-.22-1.419 0-.462.198-.693.627-.693 1.287v3.729zM40.193 20.558c-.506 1.32-1.463 2.101-2.871 2.343-1.386.242-2.728.022-4.026-.66-1.298-.682-1.947-1.716-1.947-3.102V.098h3.927v19.833c0 .77.242 1.254.726 1.452.506.198 1 .121 1.485-.231.506-.374.759-1.001.759-1.881V.098h3.894v19.173c0 .88.242 1.507.726 1.881.506.352 1 .429 1.485.231.484-.198.726-.682.726-1.452V.098h3.96v19.041c0 1.386-.65 2.42-1.947 3.102-1.298.682-2.651.902-4.06.66-1.385-.242-2.331-1.023-2.837-2.343zm-18.666-.297c0 .418.132.759.396 1.023.264.264.594.396.99.396h1.584v-7.887h3.927V23h-6.897c-1.078 0-2.013-.374-2.805-1.122-.77-.77-1.155-1.694-1.155-2.772V3.992c0-1.078.385-1.991 1.155-2.739.792-.77 1.727-1.155 2.805-1.155h6.897v6.864h-3.927V1.418h-1.584c-.396 0-.726.132-.99.396s-.396.605-.396 1.023v6.336h4.95v2.904c-.44-.594-1.045-1.067-1.815-1.419-.77-.374-1.485-.506-2.145-.396-.66.11-.99.572-.99 1.386v8.613zM14.441 23h-3.96V9.074c0-1.166-.22-2.365-.66-3.597-.44-1.254-1.155-2.167-2.145-2.739V23h-3.96V.131c1.21-.198 2.453.055 3.73.759 1.275.704 2.287 1.529 3.035 2.475V.098h3.96V23z" fill="#000"/><path d="M61.45 34.109c-.399 0-.68-.141-.869-.353-.188-.211-.258-.54-.258-.893 0-.705.282-1.598.752-2.42.658-1.246 1.668-2.374 2.514-2.609.141-.047.259-.047.376-.047.494 0 .87.306 1.105 1.105v.047a.353.353 0 01-.259.352c-.047.024-.117.024-.164.024a.38.38 0 01-.33-.212c-.117-.235-.258-.329-.422-.329a.536.536 0 00-.259.07c-.587.26-1.222 1.058-1.668 1.928-.306.634-.517 1.269-.517 1.715 0 .165.023.306.07.423.07.165.235.235.517.235.376 0 .893-.164 1.74-.587 1.057-.635 2.467-1.669 4.323-3.22a.379.379 0 01.212-.07c.094 0 .188.047.258.117a.377.377 0 01-.047.494c-1.833 1.55-3.29 2.585-4.441 3.266l-.564.306c-.893.446-1.575.658-2.068.658z" fill="#000" fill-opacity=".5"/><path d="M57.93 27.317a.302.302 0 01-.235-.094c-.141-.164-.235-.282-.259-.376v-.094a.48.48 0 01.07-.258.325.325 0 01.26-.141h.093c.094 0 .188.023.259.07a.295.295 0 01.211.282c0 .07-.023.141-.07.188l.023.094a.298.298 0 01-.094.212.377.377 0 01-.258.117zm-.658 7.05l-.141-.023c-.423-.118-.705-.588-.705-1.669 0-.799.164-1.903.493-3.43l.024-.024c.094-.353.258-.494.446-.494l.141.024a.486.486 0 01.33.235l.023.023c.047.07.07.165.07.235l.024.141a.353.353 0 01-.094.259c-.282 1.386-.447 2.397-.447 3.031 0 .212.024.353.047.494.024.14.094.188.188.188.729 0 3.008-3.29 3.126-3.455.14-.211.282-.376.376-.493.047-.094.164-.141.282-.141.07 0 .14.023.188.07.094.07.14.165.14.282 0 .07-.023.141-.07.212l-.352.47c-.588.846-2.797 4.065-4.09 4.065z" fill="#000" fill-opacity=".5"/><path d="M40.659 38.88l-.235-.024c-.235-.094-.376-.282-.423-.564v-.141c0-.188.024-.376.117-.611.306-.87 1.27-2.233 3.055-3.713a44.23 44.23 0 011.81-1.457c0-.376-.094-.705-.329-.987a2.337 2.337 0 00-.893-.564c-.494-.165-.987-.188-1.434-.188h-.493l-.4.023a2.06 2.06 0 01-.728-.117.635.635 0 01-.423-.635c0-.235.07-.517.235-.893l.023-.047c.306-.587.588-.87.847-.94.07-.023.117-.023.188-.023.14 0 .258.047.352.14l.024.024c.093.094.164.259.188.447 0 .258-.142.61-.47.822-.024.024-.047.024-.071.024 0 .07.024.117.094.14.165.071.47.095.846.118.54.047 1.222.07 1.95.306.306.094.541.211.729.352.423.306.658.729.728 1.199l.024.047c.329-.259.658-.517.964-.729.634-.493 1.245-.94 1.715-1.34l.212-.587.023-.047c.258-.54.54-.775.776-.846.07-.023.117-.023.188-.023.14 0 .258.047.352.14.117.118.164.26.188.424 0 .258-.117.61-.423.799l-.07.023c0 .047.023.07.07.07.141.071.423.095.752.118.517.024 1.128.07 1.81.259.258.094.493.188.681.329a1.9 1.9 0 01.681 1.128c.282-.235.564-.447.846-.658a61.73 61.73 0 001.74-1.34.379.379 0 01.211-.07c.094 0 .188.047.258.14a.384.384 0 01.071.212.377.377 0 01-.117.259c-.424.329-1.035.822-1.74 1.34l-1.292.986c-.023.165-.07.306-.117.47-.212.729-.659 1.504-1.175 2.21-.893 1.386-2.186 2.631-2.985 3.007l-.023.024c-.212.094-.4.14-.565.14-.07 0-.14 0-.211-.023-.235-.094-.376-.282-.423-.54v-.094c0-.188.047-.376.094-.611.306-.776 1.199-2.045 2.82-3.408a27.66 27.66 0 011.669-1.316c-.024-.352-.118-.634-.306-.87a1.773 1.773 0 00-.822-.516c-.447-.141-.917-.165-1.34-.165h-.776c-.258 0-.493 0-.658-.094-.093-.047-.164-.07-.211-.14l-1.48 1.127c-.447.376-.94.729-1.434 1.105-.023.164-.07.352-.117.54-.235.776-.706 1.622-1.27 2.374-.986 1.504-2.397 2.867-3.266 3.29h-.024a1.243 1.243 0 01-.587.164zm.023-.682s.212-.047.282-.094c.8-.376 2.092-1.645 3.008-3.055.353-.54.658-1.105.846-1.669-.446.33-.846.658-1.198.964-1.692 1.386-2.585 2.655-2.867 3.43a1.16 1.16 0 00-.07.353v.07zm8.366-.823c.47 0 2.069-1.48 2.962-2.867.305-.47.564-.963.728-1.433-2.162 1.692-3.29 3.031-3.619 3.948-.047.164-.07.282-.07.352z" fill="#000" fill-opacity=".5"/><path d="M34.976 34.25l-.164-.024c-.423-.047-.752-.352-.893-.87a3.495 3.495 0 01-.094-.775c0-.305.047-.658.094-1.057-.447.564-2.115 2.514-3.15 2.514a.638.638 0 01-.399-.14c-.211-.165-.282-.447-.282-.847 0-.47.141-1.08.376-1.692.4-1.01 1.105-2.138 1.904-2.75.423-.352.893-.54 1.34-.54.493 0 .986.235 1.433.8a.7.7 0 01.117.352c0 .164-.07.258-.188.352a.561.561 0 01-.211.047l-.141-.023a1.62 1.62 0 01-.4-.306c-.023-.047-.07-.07-.07-.117a.724.724 0 00-.306-.07c-.305 0-.634.164-.94.446-.587.54-1.175 1.363-1.527 2.138-.259.54-.423 1.034-.423 1.316l.047.165h.023c.094 0 .282-.094.705-.423.658-.54 1.927-2.045 2.468-2.75a.537.537 0 01.446-.235c.212 0 .4.141.4.353l-.024.117c-.258.987-.376 1.74-.376 2.28 0 .211.024.4.047.54.047.235.118.353.212.4l.164.047c.094 0 .611-.188.635-.212.54-.258 1.151-.681 1.81-1.34l.023-.023c.752-.681 1.527-1.55 2.256-2.444a.377.377 0 01.258-.117c.07 0 .141.023.212.07.094.07.14.165.14.259a.38.38 0 01-.07.211c-.752.917-1.55 1.81-2.326 2.538-.024 0-.024 0-.024.024-.799.705-1.527 1.269-2.138 1.527-.353.165-.658.259-.964.259z" fill="#000" fill-opacity=".5"/><path d="M25.48 17.283c.07-1.105.376-1.857.635-2.21.14-.14.258-.258.376-.281.07-.024.117-.024.164-.024a.45.45 0 01.376.212c.094.117.165.305.165.587 0 .07-.024.141-.024.235 0 .047-.023.07-.023.094-.658 1.904-1.222 4.418-1.692 7.05a118.4 118.4 0 00-1.222 9.424c-.118 1.198-.165 2.115-.165 2.843 0 1.41.212 1.974.517 1.998h.024c1.316 0 5.78-6.698 6.65-7.826a.325.325 0 01.259-.14c.07 0 .164.023.211.07.094.07.141.164.141.258 0 .07-.023.141-.07.212-1.434 1.927-5.64 8.624-7.497 8.624h-.07c-.823-.07-1.293-1.128-1.293-3.666 0-.728.024-1.598.118-2.608.235-2.726.658-6.204 1.269-9.494.329-1.904.705-3.737 1.151-5.358zm-3.69.517v.023c0 .212-.141.33-.353.33-.4 0-1.01-.447-1.01-1.481 0-.165.094-.282.235-.353a7.638 7.638 0 00-.165-.705c-.376-1.363-.987-2.326-1.833-2.937-.775-.588-1.739-.846-2.796-.846h-.047c-1.927.164-4.16 1.198-6.298 3.031-1.974 1.716-3.878 4.136-5.382 7.12-1.903 3.808-2.726 7.262-2.726 10.176 0 1.293.141 2.468.447 3.525.352 1.222.87 2.303 1.55 3.173a6.707 6.707 0 002.398 1.997c.94.47 1.974.729 3.078.729.729 0 1.48-.118 2.256-.33 3.76-1.15 7.896-4.817 11.233-11.773a.375.375 0 01.33-.188.29.29 0 01.14.024c.118.07.188.188.188.329 0 .047 0 .094-.023.14-3.431 7.121-7.732 10.928-11.656 12.127h-.024a8.738 8.738 0 01-1.457.352 7.69 7.69 0 01-1.269.094c-1.222 0-2.397-.258-3.43-.775-1.41-.658-2.586-1.786-3.432-3.267-.94-1.621-1.48-3.666-1.48-6.11 0-3.008.846-6.58 2.82-10.528 2.373-4.723 5.78-7.99 9-9.54a11.593 11.593 0 011.833-.682s.024-.024.07-.024a9.282 9.282 0 011.317-.258c.282-.024.564-.024.846-.024h.329c1.386.094 2.608.611 3.525 1.598 1.034 1.105 1.692 2.75 1.786 5.053z" fill="#000" fill-opacity=".5"/></svg>