<svg width="236" height="168" viewBox="0 0 236 168" fill="none" xmlns="http://www.w3.org/2000/svg"><path d="M185.2 167.8c13.4 0 25.3-4.1 35.4-12.2 10.2-8.2 15.4-19.6 15.4-33.8 0-17.1-5.7-29.6-17-37.2-10.7-7.2-23.8-11-38.8-11.2 2.9-12.9 9.4-23.5 19.2-31.5 10.4-8.4 21.8-15.1 34-19.8l.8-.3V0l-1.7.6c-11.9 4-24.1 9.1-36 15.3-12 6.2-22.7 13.8-31.9 22.6s-16.8 19-22.6 30.2c-5.8 11.3-8.8 24.3-8.8 38.8 0 16.1 4.2 30.3 12.5 42.2 8.3 12 21.6 18.1 39.5 18.1zM12.5 149.7c8.4 12 21.7 18.2 39.6 18.2 13.4 0 25.3-4.1 35.4-12.2 10.2-8.2 15.4-19.6 15.4-33.8 0-17.1-5.7-29.6-17-37.2-10.7-7.2-23.8-11-38.8-11.2 2.8-13.1 9.3-23.6 19.2-31.6 10.4-8.4 21.8-15.1 34-19.8l.8-.3V0l-1.7.6c-11.9 4-24.1 9.1-36 15.3-12 6.2-22.7 13.8-31.9 22.6s-16.8 19-22.6 30.2C3 79.9 0 93 0 107.4c0 16.1 4.2 30.3 12.5 42.3z" fill="#000"/></svg>