<svg version="1.2" xmlns="http://www.w3.org/2000/svg" viewBox="0 0 260 335" width="260" height="335"><style>tspan{white-space:pre}.a{font-size:15px;fill:#000;font-weight:400;font-family:&quot;CaveatBrush-Regular&quot;,&quot;Caveat Brush&quot;}</style><path d="M233.3 334.8H36.1c-.5 0-.8-.4-.8-.8s.3-.8.8-.8h197.2c.4 0 .8.4.8.8s-.4.8-.8.8z"/><path d="M86.6 288.1c2.6 3.5 5.8 6.5 9.2 9 .5.3 1.2.3 1.6-.2.4-.5.4-1.3-.1-1.7-3.2-2.6-5.9-5.6-8.1-8.9-2.2-3.4-4-7-5.5-10.8-.1-.5-.4-.8-.9-1-.9-.6-2.1-.2-2.6.7v.1q-3 5.5-6.6 10.6-1.8 2.6-3.8 4.9c-1.4 1.6-2.8 3.2-4.3 4.5-.5.5-.6 1.2-.2 1.7.4.5 1.2.6 1.7.2 1.8-1.4 3.3-2.9 4.8-4.5q2.3-2.3 4.3-4.9 1.9-2.3 3.7-4.8v2.6c-4.3 6.7-9.1 13.2-14.8 18.7-.4.4-.5 1-.1 1.4.3.5 1 .5 1.4.2 5-4.1 9.4-8.8 13.4-13.8q.1 1.9.1 3.7c-2.1 3.2-3.9 6.5-6 9.7-2.1 3.2-4.4 6.3-7.4 8.7-.5.4-.6 1.1-.2 1.6.4.6 1.1.7 1.7.3 3.4-2.4 6.2-5.6 8.6-8.8 1.2-1.6 2.3-3.2 3.3-4.8q.1 1.1.1 2.2c.1 8.2.2 16.7 0 28-.1 1.1.8 2 1.9 2h.1c1.1 0 1.9-.8 2-1.9.2-11.4.1-19.9 0-28.1v-.3q1.1 1.7 2.3 3.2c2.6 3.2 5.4 6.1 8.7 8.5.5.4 1.2.3 1.6-.1.5-.5.4-1.3-.1-1.8-2.9-2.4-5.4-5.4-7.6-8.5-2.1-3-3.9-6.3-5-9.6q0-1.9-.1-3.8l3.2 4c2.5 2.9 5.2 5.7 8.3 8 .4.3 1.1.2 1.4-.2.4-.5.3-1.1-.1-1.5-2.7-2.3-5.1-5.2-7.2-8.1-1.9-2.8-3.7-5.8-5.5-8.8v-1.8c.8 1.5 1.8 2.9 2.8 4.2zm101.2 16.1c-5.6-5.3-10.6-11.4-14.8-17.8V283q1.7 2.4 3.6 4.8 2.1 2.5 4.3 4.8c1.6 1.6 3.1 3.1 4.9 4.5.5.4 1.2.3 1.6-.2.5-.4.4-1.2-.1-1.6v-.1c-1.5-1.3-2.9-2.9-4.3-4.4q-2-2.4-3.8-5-3.6-5.1-6.6-10.6c-.2-.4-.5-.8-1-.9-1-.4-2.1.1-2.5 1.1-1.6 3.8-3.3 7.4-5.5 10.8-2.2 3.3-5 6.3-8.1 8.9-.5.4-.6 1.1-.2 1.6.4.6 1.1.7 1.7.3 3.4-2.5 6.6-5.5 9.2-9 1-1.3 1.9-2.7 2.8-4.1v2.2c-3.6 6-7.4 11.9-12.7 16.4-.4.4-.5 1-.2 1.4.3.5 1 .6 1.5.3 4.5-3.2 8.1-7.3 11.4-11.6v3.4l-.1.2c-1.1 3.4-2.9 6.6-5 9.7-2.2 3-4.7 5.8-7.5 8.3-.5.4-.6 1.1-.2 1.6.4.5 1.1.7 1.7.3 3.2-2.4 6-5.2 8.5-8.3q1.3-1.6 2.5-3.4v.2c-.1 8.2-.2 16.8 0 28.1 0 1.1.9 2 2 2 1.2-.1 2-1 2-2.1-.2-11.3-.1-19.8 0-28v-1.4c1.1 1.4 2.2 2.9 3.3 4.3 2.5 3.2 5.3 6.2 8.7 8.5.5.4 1.3.3 1.7-.2.4-.5.3-1.3-.2-1.7-3-2.4-5.4-5.3-7.6-8.5-2-2.9-3.8-5.9-5.8-9v-3.9q6.1 7.2 13.4 13.1c.5.3 1.1.3 1.5-.1.3-.4.3-1.1-.1-1.5zm-76.2-99.1q4.9.4 9.9.8s.7 128.6-.8 129c-1.1.3-8.9-3.1-9.5-4.6-.6-1.5.4-73.7.4-94.7v-30.5zm10.1-65.3l-.1 27.1q-5.1-.3-10.1-.6c0-9.1-.1-18.4-.1-27.9q5.2.7 10.3 1.4zm.5-72.2l-.4 30.3q-5.3-.8-10.6-1.7c0-8.5.2-20.8.1-28.8l10.9.2zm.5-66.6l-.6 33.3-11.1.2c-.1-17.6 0-32.3.8-33.1.8-.7 10.9-.4 10.9-.4z"/><path d="M120.9 335q-.4 0-.7-.3c-.2-.2-.3-.5-.3-.7 0-.2.4-17.9.5-42 .1-22.8.2-53.1.3-85.7 0-.5.4-1 1-1 .5 0 1 .5 1 1-.1 32.6-.2 62.9-.3 85.7-.1 20.8-.4 36.8-.4 41l14.8-.4c.1-4 .4-20.1.4-41.2-.1-19.6-.1-46.3-.1-84.1 0-.5.5-1 1-1 .6 0 1 .5 1 1 0 37.8 0 64.5.1 84.1 0 24.3-.4 42.1-.4 42.2 0 .6-.5 1-1 1l-16.8.4h-.1zm17.3-166.1c-.5 0-1-.4-1-1v-24.4c0-.6.5-1 1-1 .6 0 1 .4 1 1v24.4c0 .6-.4 1-1 1zm-16.4-.9c-.6 0-1-.5-1-1v-26.3c0-.5.5-1 1-1 .6 0 1 .5 1 1V167c0 .5-.5 1-1 1zm16.5-66.5c-.5 0-1-.4-1-1l.1-32.3c0-.5.4-1 1-1 .5 0 1 .5 1 1l-.1 32.3c0 .6-.4 1-1 1zm-16.5-2c-.5 0-1-.5-1-1V67.6c0-.5.5-1 1-1 .6 0 1 .5 1 1v30.9c0 .5-.4 1-1 1zm.3-64.2c-.5-.1-1-.5-1-1l.2-32.4c0-.5.4-1 .9-1l16.1-.2q.4 0 .7.2.3.3.3.8v29.7l.1 2.9c0 .5-.5 1-1 1-.6 0-1-.5-1-1l-.1-2.9V2.7l-14 .2-.2 31.4c0 .5-.4 1-1 1z"/><path d="M126.2 24.9c-.5 0-.8-.3-.8-.7V8.1c0-.4.3-.8.8-.8.4 0 .7.4.7.8v16.1c0 .4-.3.7-.7.7zm3.3.2c-.4 0-.8-.3-.8-.7l-.2-7.5c0-.4.3-.7.7-.7.5-.1.8.3.8.7l.2 7.5c0 .4-.3.7-.7.7zm-3.9 214.2c-.5 0-.8-.3-.8-.7l.2-21.8c0-.4.3-.8.7-.8.4 0 .8.4.8.8l-.2 21.8c0 .4-.3.7-.7.7zm3-.1l-.1-8.1c0-.4.4-.8.8-.8s.7.3.7.8l.1 7.9-.7.2zm-1.3 88.5c-.4 0-.8-.3-.8-.7l-.4-26.9c0-.5.3-.8.8-.8.4.1.7.3.7.7l.4 27c0 .4-.3.7-.7.7zm4.3-.9c-.4 0-.7-.3-.7-.7l-.4-9.2c0-.4.3-.8.7-.8.4 0 .8.3.8.7l.4 9.3c0 .4-.3.7-.8.7z"/><path fill-rule="evenodd" d="M214.7 214.6h-.1c-33.6-2.6-62.6-5.1-93.3-7.7-20.9-1.8-42.1-3.6-65.3-5.5q-.2 0-.4-.1c-10.6-5.7-16.7-9.7-23.7-14.3-2.4-1.6-5-3.2-7.9-5.1-.3-.2-.5-.5-.4-.9 0-.3.2-.6.5-.8 4-2.3 7.5-4.6 10.9-6.8 6.7-4.3 13.1-8.5 21.9-11.3h.4c14.9 1 30.9 1.9 47.8 2.9 38.7 2.2 78.7 4.5 113.3 8.5.4.1.8.4.8.9.1.4-.1.8-.5 1-4.3 2.3-9 5-13.5 7.6-5.3 3-10.3 5.9-14.5 8 3.5 3.3 7.6 6.8 11.5 10.1 4.5 3.9 9.2 7.9 13.2 11.8.3.3.4.7.2 1.1-.1.4-.5.6-.9.6zM56.4 199.4c23.1 1.9 44.3 3.7 65.1 5.5 29.8 2.5 58 4.9 90.5 7.5-3.5-3.2-7.4-6.5-11.1-9.8-4.4-3.7-8.8-7.5-12.7-11.2-.2-.2-.3-.5-.3-.8.1-.4.3-.6.6-.8 4.4-2 9.9-5.2 15.7-8.6 3.6-2 7.2-4.1 10.8-6-33.9-3.8-72.6-6.1-110-8.2-16.9-1-32.8-1.9-47.7-2.9-8.4 2.7-14.3 6.6-21.2 11-3 2-6.1 4-9.6 6 2.3 1.5 4.4 2.9 6.5 4.2 6.9 4.6 13 8.5 23.4 14.1z"/><path d="M76.8 199.3h-.1c-5.1-.3-12.4-1-17.5-1.5-.4 0-.7-.4-.7-.8.1-.4.5-.7.9-.7 5 .6 12.3 1.2 17.4 1.5.4 0 .7.4.7.8s-.3.7-.7.7zm-7.2-4.2c-1.6 0-3.9-.3-6-.6-.8-.1-1.6-.2-2.3-.3-.4-.1-.7-.4-.7-.9.1-.4.5-.7.9-.6.7.1 1.5.2 2.3.3 2 .3 4.3.6 5.9.6.4 0 .7.3.7.8 0 .4-.3.7-.8.7zm127.1-17.8h-.1l-19.3-1.5c-.4 0-.7-.4-.7-.8s.4-.7.8-.7l19.3 1.5c.4 0 .7.4.7.8s-.3.7-.7.7zm-11.3 2.2h-.1c-2.7-.4-5.4-.7-8.1-.8-.4 0-.7-.3-.7-.7 0-.4.3-.8.8-.8 2.7.2 5.5.4 8.2.8.5.1.7.5.7.9-.1.4-.4.6-.8.6z"/><path fill-rule="evenodd" d="M224.5 158h-.1c-30.8-4.3-64.8-10-97.6-15.4-30.5-5.1-62.1-10.4-90.9-14.5-.4-.1-.7-.4-.8-.8-.1-.4.1-.8.5-1 5-3.1 10.7-6.1 16.3-9.1 4.9-2.5 9.9-5.2 14.3-7.8-3.9-3.1-8.4-7.2-13.2-11.6-4-3.7-8.2-7.5-12.2-10.9-.3-.3-.4-.7-.2-1.1.1-.5.5-.7 1-.6C74 88.5 118 96.7 160.5 104.5c26.2 4.9 51 9.4 70.7 12.4q.3.1.5.2c10.7 7.8 27 25.9 27.7 26.7.2.2.3.5.3.8-.1.3-.3.6-.6.7-.2.1-18 8.1-34.3 12.7h-.3zM39 126.5c28.1 4.1 58.6 9.2 88.2 14.1 32.7 5.5 66.5 11.1 97.3 15.4 13.5-3.8 28.2-10 32.5-11.9-3.7-4-17.2-18.6-26.3-25.2-19.7-3-44.4-7.6-70.6-12.4C119 98.9 76.6 91 44.6 87.5c3.2 2.8 6.5 5.8 9.7 8.8 5.3 4.8 10.2 9.3 14.3 12.4.2.2.4.6.4.9 0 .3-.2.6-.5.8-4.8 2.9-10.3 5.8-15.6 8.6-4.7 2.5-9.5 5-13.9 7.5z"/><path d="M220.2 152.5h-.1c-6.6-.7-8.1-1-11.9-1.8-1.4-.2-3.2-.6-5.7-1-.4-.1-.7-.5-.6-.9.1-.4.5-.7.9-.6 2.5.4 4.3.8 5.7 1.1 3.7.7 5.2 1 11.8 1.7.4.1.7.5.7.9-.1.3-.4.6-.8.6zm-.3-2.8c-3.2-.3-5.2-.4-8.3-1.1-.4-.1-.7-.5-.6-.9.1-.4.5-.7.9-.6 3 .7 5 .8 8.1 1.1.4 0 .7.4.7.8s-.4.7-.8.7zM86 97.2h-.1c-6.9-.7-11-1.3-17.7-2.6-.4-.1-.7-.5-.6-.9.1-.4.5-.7.9-.6 6.6 1.3 10.7 1.9 17.5 2.6.4 0 .7.4.7.8s-.4.7-.7.7zm-.6 3h-.1c-2.9-.5-5.7-.9-8.6-1.1-.4 0-.7-.3-.7-.7 0-.5.4-.8.8-.7 2.9.1 5.9.5 8.7 1 .4.1.7.5.6.9 0 .4-.4.6-.7.6z"/><path fill-rule="evenodd" d="M166.1 69.2c-16.3 0-32.9-.3-49.2-.7-15.6-.3-30.5-.6-44.5-.6q-.3 0-.5-.1c-10.2-5-17.7-8.8-28.5-15.7-.3-.2-.5-.5-.5-.8 0-.4.2-.7.4-.9C53.6 43.6 71.9 33.6 72 33.5c.2-.1.4-.1.5-.2.9 0 86.9.5 135.2 0 .4 0 .8.3 1 .7.1.4-.1.8-.4 1.1-2.8 2.1-6.6 4.1-10.7 6.3-5.6 2.9-11.8 6.3-16.1 10.2 2.7 1.6 6.1 3.3 9.8 5.1 5.7 2.9 12.2 6 17 9.7.3.2.5.7.4 1.1-.2.4-.5.7-.9.7-13.4.8-27.4 1-41.7 1zm-93.5-3.3c14 0 28.8.3 44.4.6 29.6.7 60.1 1.3 87.8-.2-4.4-2.8-9.6-5.4-14.4-7.8-4.2-2-8.2-4-11-5.9-.3-.2-.4-.4-.5-.7 0-.3.1-.6.3-.8 4.5-4.6 11.4-8.3 17.5-11.5 2.7-1.5 5.4-2.9 7.7-4.3-47.5.5-126.5.1-131.6 0-2.1 1.2-17.4 9.6-27.1 15.9 9.2 5.8 15.9 9.3 26.9 14.7z"/><path d="M76.7 39.4c-.4 0-.7-.4-.7-.8-.1-.4.3-.7.7-.7 5.7-.3 11.5-.4 17.2-.3.5 0 .8.4.8.8s-.4.7-.8.7c-5.7-.1-11.5 0-17.2.3zm.1 4c-.4 0-.7-.2-.8-.6 0-.4.3-.8.7-.9 2.5-.2 5.1-.2 7.6 0 .4.1.7.4.7.8 0 .5-.4.8-.8.7-2.4-.2-4.9-.2-7.4 0zm93.1 21.5c-.4 0-.8-.3-.8-.7 0-.4.3-.8.7-.8 5.5-.3 11.1-.4 16.7-.1.4 0 .7.4.7.8s-.4.7-.8.7c-5.5-.3-11-.2-16.5.1zm1.9-3.1h-1.9c-.4 0-.7-.4-.7-.8s.3-.7.8-.7c2.3.1 4.6 0 6.9-.2.4 0 .8.2.8.6.1.4-.2.8-.6.9q-2.7.2-5.3.2zM258.3 191h-.1q-1-.1-1.9-.1c-.5 0-.8-.4-.8-.8 0-.5.4-.8.8-.8q1 .1 2 .1c.5.1.8.5.8.9-.1.4-.4.7-.8.7zm-33.8 3.9c-.3 0-.6-.2-.7-.5-.1-.5.1-.9.5-1.1 8.3-2.9 17.1-4.3 26-4.1.4 0 .8.4.8.8s-.4.9-.8.8c-8.7-.2-17.3 1.2-25.5 4q-.1.1-.3.1zm34.2 18.2h-.4q-.8-.4-1.5-.8c-.4-.2-.6-.7-.4-1.1.2-.4.7-.5 1-.3q.9.3 1.6.8c.4.2.6.6.4 1-.2.3-.4.4-.7.4zm-6-3.1q-.2 0-.3-.1c-5.1-2.1-10.5-3.4-16.1-3.7-.4-.1-.7-.4-.7-.9 0-.4.4-.8.8-.7 5.8.4 11.3 1.7 16.6 3.8.4.2.6.7.4 1.1-.1.3-.4.5-.7.5zM12.2 87.5H12l-1.8-.6c-.4-.2-.7-.6-.5-1 .1-.4.5-.6.9-.5q1 .3 1.9.7c.4.1.6.5.5.9-.2.3-.4.5-.8.5zm28 16.1q-.3 0-.5-.2c-6.6-6-14.1-10.7-22.3-13.9-.4-.1-.6-.5-.5-.9.2-.4.6-.6 1-.5 8.4 3.3 16.1 8 22.8 14.2.3.3.3.8 0 1.1q-.2.2-.5.2zm-38.7 5.5c-.4 0-.7-.3-.8-.7 0-.4.3-.8.7-.8q.9-.2 1.8-.2c.4-.1.8.2.8.6 0 .4-.3.8-.7.8q-.8.1-1.7.2l-.1.1zm23.3 1.4h-.2c-5.4-1.8-11.1-2.6-16.7-2.4-.4.1-.8-.3-.8-.7 0-.4.3-.7.7-.8 5.9-.2 11.7.6 17.3 2.4.4.2.6.6.4 1-.1.3-.3.5-.7.5zm214.7-69.1c-.4 0-.7-.3-.8-.7 0-.5.3-.9.7-.9l2-.2c.4-.1.8.3.8.7.1.4-.2.8-.7.9q-.9 0-1.9.1 0 .1-.1.1zm-30.7 9c-.3 0-.6-.2-.7-.5-.2-.3-.1-.8.3-1 8-4.3 16.5-7.1 25.5-8.3.5-.1.9.2.9.6.1.5-.2.9-.6.9-8.8 1.2-17.3 4-25 8.2q-.2.1-.4.1zm36.6 12.5h-.3q-.8-.3-1.6-.5c-.4-.2-.7-.6-.5-1 .1-.4.5-.7.9-.5q.9.2 1.8.5c.4.1.6.6.4 1-.1.3-.4.5-.7.5zm-6.3-2.1h-.1c-5.4-1.3-11-1.7-16.6-1.2-.5 0-.9-.3-.9-.7 0-.4.3-.8.7-.9 5.8-.5 11.6-.1 17.1 1.2.5.1.7.6.6 1-.1.4-.4.6-.8.6z"/><text transform="rotate(2.78 -3943.866 1767.368) scale(2)"><tspan x="0" y="0" class="a" dx="0 0 0 0 0 0 0">BEGINS</tspan></text><text transform="rotate(9.12 -725.504 542.32) scale(2)"><tspan x="0" y="0" class="a" dx="0 0 0 0 0 0 0 0 0 0">ADVENTURE</tspan></text><text transform="matrix(2 0 0 2 106.101 61.907)"><tspan x="0" y="0" class="a" dx="0 0 0 0">THE</tspan></text></svg>