<svg version="1.2" xmlns="http://www.w3.org/2000/svg" viewBox="0 0 236 260" width="236" height="260"><style>.a{fill:#fff}</style><path fill-rule="evenodd" d="M230.2 172c-13 14.8-35.5 22-53.5 28.3-22.6 7.8-45.3 15.3-68 23-16.2 5.4-37.2 13.7-54.2 6.8-8.5-3.4-12.8-10.8-16.2-18.8-4.4-10.6-8.5-21.4-12.6-32.2C17 156.2 8.8 133.1.6 110c-.8-2.3.1-4.1 1.6-5.2q.5-.4 1.1-.8c16.5-8.1 33.2-15.6 50.1-22.6-3.5-9.2-8.7-17.7-2.8-27.3 5.2-8.4 16.2-13.3 24.9-17.3 9.2-4.2 20.2-8.5 30.4-5.2 10.8 3.6 14.3 14.2 18.3 23.8q15.3-4.9 30.7-9.4c7.5-2.2 18.6-7.6 26.7-5.8 7.8 1.8 11 11.6 14.3 17.8 10.4 19.7 19.8 40 28.1 60.8 6.1 15.7 19.6 38.1 6.2 53.2zm-13.7-46.7q-5.1-13.2-10.9-26.2-5.8-13-12.2-25.7-3.7-7.4-7.6-14.7c-3.4-6.2-6.1-9.2-13.9-7.9-4.9.9-9.8 2-14.8 3.4q1.5 2.5 2.8 5.1l1.8-.6s1.9-.7 4.5-1.3c.3-.1.5.1.6.3.1.2-.1.5-.3.6-2.6.6-4.5 1.3-4.5 1.3s-.6.2-1.6.6c2.6 5.2 4.7 10.7 6 16.4 1.9 7.6-1.7 10.8-8.2 13.7-6.5 2.9-13.1 5.9-18-1.2-5.1-7.4-8-17.2-11.5-25.7-4.6 1.7-9.2 3.3-13.7 4.8Q83.5 78.9 52.9 91.7q.9 2.9 2.2 5.6.3-.1.7-.2V97c.2 0 .5.1.6.3.1.3-.1.5-.3.6q-.3.1-.6.3c2.7 6 6.1 11.8 7.9 18.1 2.3 7.9-1.1 11.1-8.3 13.7-5.7 2.1-14.4 5-18.8-.9-2.6-3.4-4-8.2-5.8-12.2q-1.6-3.4-3.1-6.9-2.1 1-3.7 1.9h-.1c-.2.1-.5 0-.6-.2-.1-.2 0-.5.2-.6q1.6-.9 3.8-2l-2.2-5q-7.1 3.2-14.1 6.6c7.4 20.7 14.7 41.3 22.5 61.8 3.9 10.3 7.8 20.6 11.9 30.8 2 4.9 3.8 10.9 7.7 14.6 5 4.6 11.3 5.3 17.8 5.1 18.5-.6 37-9.2 54.3-15 18.8-6.4 37.8-12.5 56.5-19.3 14-5 47.3-15.4 45.1-34.4-1.1-9.6-6.5-20-10-29zM66.3 76.2q22.1-8.8 44.7-16.4c-2.4-6.1-4.8-14.5-11.7-15.4-6.1-.8-13.6 3.1-19 5.6-4.7 2.1-12.5 5.2-16 9.3-4.4 5.2-.5 11.2 2 16.9zm-22 19.2q-5.6 2.3-11.1 4.8 1.1 2.6 2.3 5.1 3.7-1.6 8.2-3.4c.2-.1.5 0 .6.2.1.3-.1.6-.3.6q-4.5 1.9-8.1 3.5 2.4 5.5 5 11.1l1.6 3.6q.5 3.6 3.7 2c1.8 0 6.3-1.2 8.6-2.7-1.1-8.5-7.6-16.8-10.5-24.8zM148 56.9q-5.3 1.6-10.5 3.5 1.3 2.9 2.5 5.9l1.5-.6c.2 0 .5.1.6.3.1.3-.1.5-.3.6-.5.2-.9.3-1.4.5l3.4 8c.8 1.8 2.4 7.8 4 8.6 1.9 1 3.7-.5 5.4-1.3q1.3-.6 2.7-1.2 2.6-.1 1.6-2.2c.4-1.9-2-6.3-2.6-8.2q-1.5-3.9-3.4-7.6-2.8 1-6.2 2.2c-.2.1-.5-.1-.6-.3-.1-.2.1-.5.3-.6q3.3-1.1 6.1-2.1-1.4-2.6-2.9-5.2-.1-.1-.2-.3z"/><path d="M96.2 82.9q4.4-1.6 8.7-3.2c.3-.1.4-.3.3-.6-.1-.2-.3-.4-.6-.3q-4.3 1.6-8.7 3.2c-.3.1-.4.4-.3.6.1.2.4.4.6.3zm12.3-4.5q4.4-1.6 8.7-3.1c.3-.1.4-.4.3-.6-.1-.2-.4-.4-.6-.3q-4.3 1.6-8.8 3.2c-.2.1-.3.3-.2.6 0 .2.3.3.6.2zm12.2-4.3q4.6-1.7 8.8-3.2c.2 0 .4-.3.3-.6-.1-.2-.4-.3-.6-.2q-4.2 1.5-8.8 3.1c-.2.1-.4.3-.3.6.1.2.4.3.6.3zM77.3 216.3l-2.9.9q-2.8 1-6 .6c-.2 0-.5.2-.5.4 0 .3.2.5.4.5q3.4.4 6.4-.6l2.9-1c.2 0 .4-.3.3-.5-.1-.3-.4-.4-.6-.3zM59.6 96.6q4.2-1.7 8.7-3.4c.2-.1.3-.3.2-.6-.1-.2-.4-.3-.6-.2q-4.4 1.7-8.7 3.3c-.2.1-.3.4-.2.6.1.2.3.4.6.3zm-2.2 115.5c-.2-.2-.5-.2-.7 0-.1.1-.2.4 0 .6 2.1 2.4 4.9 4.2 7.9 5.2q.2.1.3 0 .2-.1.3-.3c.1-.2-.1-.5-.3-.6-2.9-.9-5.5-2.7-7.5-4.9zM84 87.4q3.6-1.4 7.3-2.7l1.4-.5c.2-.1.4-.4.3-.6-.1-.3-.4-.4-.6-.3l-1.4.5q-3.7 1.3-7.4 2.7c-.2.1-.3.3-.2.6.1.2.3.4.6.3zm-12.3 4.5h.1q4.3-1.6 8.7-3.2c.2-.1.3-.4.2-.6 0-.3-.3-.4-.6-.3q-4.4 1.6-8.7 3.3c-.2 0-.3.3-.2.6 0 .2.3.3.5.2zM49.9 197.8h.1c.2-.1.3-.4.2-.6-1-2.6-2.2-5.6-3.4-8.7-.1-.2-.4-.3-.6-.3-.3.1-.4.4-.3.6 1.2 3.2 2.4 6.1 3.5 8.7 0 .3.3.4.5.3zm-23.3-61c.3-.1.4-.3.3-.6l-3.3-8.7c-.1-.3-.4-.4-.6-.3-.2.1-.4.4-.3.6l3.3 8.7c.1.3.4.4.6.3zM22 124.6c.3-.1.4-.4.3-.6-1.7-4.6-2.9-7.7-3.3-8.8 0 0 0-.4 1.5-1.4.2-.2.3-.5.1-.7-.1-.2-.4-.2-.6-.1-1.5 1.1-2.1 1.8-1.8 2.5.4 1.1 1.5 4.2 3.2 8.8.1.2.4.4.6.3zm9.2 24.4c.2-.1.4-.3.3-.6l-3.3-8.7c-.1-.2-.4-.4-.6-.3-.3.1-.4.4-.3.6l3.3 8.8c.1.2.3.3.6.2zm4.6 12.2c.3 0 .4-.3.3-.6q-1.7-4.4-3.3-8.7c-.1-.2-.4-.3-.6-.3v.1c-.3 0-.4.3-.3.5q1.6 4.4 3.3 8.8c.1.2.4.3.6.2zm53.9 50.9c-3.4 1.2-6.4 2.2-8.9 3-.2.1-.3.3-.2.6 0 .2.3.3.5.3 2.5-.8 5.4-1.8 8.9-3 .2-.1.4-.3.3-.6-.1-.2-.4-.3-.6-.3zm-44.5-26.5c.2-.1.3-.3.2-.6q-1.6-4.2-3.3-8.7c-.1-.2-.4-.4-.6-.2-.3.1-.4.3-.3.6q1.7 4.5 3.4 8.7c.1.2.3.3.6.2zm-4.7-12.2c.2 0 .3-.3.2-.6q-1.6-4.3-3.3-8.7c-.1-.2-.3-.3-.6-.2-.2.1-.4.3-.3.6q1.7 4.4 3.4 8.7c.1.2.3.3.6.2zm10.5 27c-.2.1-.3.3-.2.6 1.7 4.3 3 7.2 3.7 8.6.1.2.3.3.6.2.2-.1.3-.4.2-.6-.7-1.4-1.9-4.2-3.7-8.6-.1-.2-.3-.3-.6-.2zm161-32.7q-.6.5-1.3.9c-1 .7-3.4 1.9-6.8 3.3-.3.1-.4.4-.3.6.1.3.4.4.6.3 3.6-1.5 5.9-2.6 7-3.4q.7-.5 1.4-.9c.2-.2.2-.5.1-.7-.2-.2-.5-.2-.7-.1zm-27.8-96.5c.1.2.3.3.5.2q.1 0 .1-.1c.2-.1.3-.4.2-.6-1.8-3.2-3.3-6-4.7-8.1-.1-.2-.4-.3-.6-.2-.2.2-.3.5-.2.7 1.4 2.1 2.9 4.8 4.7 8.1zm-6.2-11l.1-.1c.3-.1.3-.4.2-.6-2.2-3-3.1-3.4-3.7-3.4q-2.2.1-4.7.5c-.2 0-.4.3-.4.5.1.3.3.5.6.4q2.4-.4 4.5-.5c.2 0 .9.2 2.9 3 .1.2.3.2.5.2zm30.6 61.3c1.3 3 2.6 5.8 3.8 8.5.1.2.3.3.6.2.2-.1.3-.4.2-.6-1.1-2.6-2.4-5.5-3.8-8.5-.1-.2-.4-.4-.6-.2-.2.1-.3.3-.2.6zm-16.7-35.4q2 4.1 4 8.3c.2.3.4.4.6.3h.1c.2-.1.3-.4.2-.7q-2.1-4.2-4.1-8.3c-.1-.3-.4-.4-.6-.3-.3.2-.4.4-.2.7zm-6-11.7c1.4 2.6 2.8 5.3 4.3 8.3.1.2.4.3.6.3v-.1c.3-.1.3-.4.2-.6-1.5-3-2.9-5.8-4.2-8.3-.2-.2-.4-.3-.7-.2-.2.1-.3.4-.2.6zm33.4 70.4c-.2.1-.3.4-.2.6q.3.7.4 1.1c.9 2.5 1.3 5.2 1 7.8-.1.2.1.5.4.5h.2c.2-.1.3-.2.3-.4.3-2.7 0-5.6-1-8.2q-.1-.4-.5-1.2c-.1-.2-.3-.3-.6-.2zm-11.7-26.5c.3-.1.4-.4.3-.6q-1.9-4.1-3.9-8.5c-.1-.2-.4-.3-.7-.2-.2.1-.3.4-.2.6q2 4.4 3.9 8.5c.1.2.4.3.6.2zm-5.4-11.8c.2-.1.3-.4.2-.7l-4-8.4c-.1-.2-.4-.3-.6-.2-.3.1-.3.4-.2.6q2 4.2 3.9 8.4c.1.3.4.4.6.3h.1zm17.5 51.3c-.9 2.7-2.6 5.3-4.9 7.6-.2.1-.2.4 0 .6.1.2.3.2.5.1q.1 0 .1-.1c2.5-2.4 4.2-5 5.2-7.9.1-.2-.1-.5-.3-.6-.3-.1-.5.1-.6.3zM102.1 208q-4.8 1.6-8.9 3c-.2.1-.3.3-.3.5.1.3.4.4.6.3q4.1-1.3 8.9-2.9c.2-.1.3-.4.3-.6-.1-.3-.4-.4-.6-.3zm24.7-8.4q-4.5 1.6-8.8 3c-.3.1-.4.4-.3.6.1.3.3.4.6.3q4.3-1.4 8.8-3c.2-.1.4-.3.3-.6-.1-.2-.4-.3-.6-.3zm12.3-4.2q-4.4 1.6-8.8 3c-.2.1-.4.4-.3.6.1.3.4.4.6.3l8.8-3c.3-.1.4-.3.3-.6-.1-.2-.3-.4-.6-.3zm-24.7 8.4q-4.5 1.6-8.8 3c-.3.1-.4.4-.3.6.1.2.4.4.6.3q4.3-1.4 8.8-3c.3-.1.4-.3.3-.6-.1-.2-.3-.3-.6-.3zm37-12.6q-4.3 1.5-8.8 3c-.2.1-.3.4-.2.6 0 .3.3.4.5.3q4.5-1.5 8.9-3.1c.2 0 .3-.3.2-.5 0-.3-.3-.4-.6-.3zm62.5-57.8c1.5 3.4 2.8 6.3 3.7 8.6.1.2.4.3.6.2.3-.1.4-.4.3-.6-1-2.3-2.2-5.2-3.7-8.6-.1-.2-.4-.3-.7-.2-.2.1-.3.4-.2.6zm-13.5 39.9c-2.5 1-5.4 2.2-8.6 3.4-.3.1-.4.4-.3.6.1.2.3.4.6.3 3.3-1.3 6.2-2.4 8.7-3.4.2-.1.3-.4.2-.6-.1-.2-.3-.4-.6-.3zm-36.6 13.6l-8.8 3c-.3.1-.4.4-.3.6.1.3.3.4.6.3q4.4-1.5 8.8-3.1c.2 0 .3-.3.2-.6 0-.2-.3-.3-.5-.2zm24.5-8.9q-2.7 1-5.5 2-1.6.6-3.3 1.2c-.2.1-.3.4-.2.6.1.3.3.4.6.3q1.3-.5 2.7-1 3.1-1.1 6-2.2c.2-.1.4-.4.3-.6-.1-.3-.4-.4-.6-.3zm-12.3 4.5q-4.2 1.5-8.7 3.1c-.3.1-.4.4-.3.6.1.3.3.4.6.3q4.5-1.6 8.8-3.1c.2-.1.3-.4.2-.6-.1-.3-.3-.4-.6-.3zm-75.4-21.7c6 6.1 6.4 16.5 1.7 23.7-4.6 7.1-13.6 10.9-22.2 10.2-2.8-.2-5.6-.9-8-2.3-5.4-3.1-8.4-9.3-9.2-15.5-.8-5.4 0-11.3 3.6-15.4 3.1-3.6 8.7-5.9 12.2-6.6 3.6-.8 17.7 1.5 21.9 5.9z"/><path class="a" d="M88.6 191.6q-1.2.4-2.4.6c-.4 0-.7-.2-.7-.5-.1-.3.1-.6.5-.7q1.1-.2 2.2-.5c.4-.1.7.1.8.4.1.3-.1.6-.4.7zm4.5-1.8c-.3.1-.6 0-.8-.2-.1-.3 0-.7.3-.9q1-.5 2-1.2c.2-.2.6-.1.8.1.2.3.1.7-.1.9q-1 .7-2.1 1.3h-.1zm-11.6 2.6q-.2.1-.3.1l-.5-.1q-1-.1-1.9-.2c-.4-.1-.6-.4-.5-.7 0-.3.3-.6.7-.5q.8.2 1.7.2l.6.1c.3 0 .6.3.6.6-.1.2-.2.4-.4.5zm17.2-7.1c-.2.1-.4.1-.6-.1-.3-.2-.3-.6-.1-.8q.7-.8 1.3-1.7l.1-.2c.2-.3.5-.4.8-.2.3.2.4.6.2.8l-.1.3q-.6.9-1.4 1.7-.1.2-.2.2zm-24.2 5.4q-.2.1-.5-.1-.3-.1-.5-.2-.8-.5-1.6-1.1c-.3-.2-.3-.6-.1-.9.2-.2.6-.3.8-.1q.7.6 1.5 1 .2.2.5.3c.3.1.4.5.2.8q-.1.2-.3.3zM102 179h-.3c-.3-.1-.5-.4-.4-.8q.3-1.1.4-2.2c.1-.4.4-.6.7-.6.3.1.6.4.5.7q-.2 1.3-.5 2.5c0 .2-.2.3-.4.4zm-32.8 6.8c-.2.1-.5 0-.7-.2q-.7-1-1.2-2.2c-.1-.3 0-.6.3-.8.3-.1.6 0 .8.3q.5 1.1 1.1 2c.2.3.1.7-.1.9h-.2zm33.3-14h-.1c-.3.1-.6-.2-.7-.5q-.2-1.2-.5-2.3c-.1-.3.1-.6.4-.7.4-.1.7.1.8.4q.3 1.2.5 2.5c0 .2-.1.5-.4.6zm-36 7.4h-.1c-.3.1-.7-.1-.7-.5q-.3-1-.4-2.1l-.1-.3c0-.3.2-.6.6-.6.3-.1.6.1.6.5l.1.3q.1 1 .3 2c.1.3-.1.6-.3.7zm33.5-14.1c-.3.1-.6 0-.7-.2q-.7-1-1.5-1.8c-.2-.3-.2-.6 0-.9.3-.2.7-.2.9 0q.9.9 1.6 2c.2.3.1.6-.2.8q0 .1-.1.1zm-3.3-3.2q-.3.1-.5-.1-1-.5-2.1-1c-.3-.1-.5-.5-.4-.8.2-.3.5-.4.8-.3q1.3.5 2.3 1.1c.3.2.3.5.2.8q-.1.2-.3.3zM65.9 172h-.2c-.4 0-.6-.3-.6-.6q.2-1.3.4-2.5c.1-.3.4-.5.7-.4.4 0 .6.4.5.7q-.3 1.1-.4 2.3c0 .2-.1.4-.4.5zm24-12.7q-.2.1-.3 0-1.2-.3-2.4-.5c-.3-.1-.5-.4-.4-.7 0-.3.3-.5.7-.5l2.4.6c.3 0 .5.4.4.7-.1.2-.2.4-.4.4zm-21.7 5.9q-.3.1-.6-.1c-.3-.2-.3-.5-.2-.8q.5-.8 1.1-1.4.3-.3.5-.6c.3-.2.7-.2.9 0 .2.2.2.6 0 .9q-.3.2-.5.5-.5.6-.9 1.2l-.3.3zm14.6-7.1q-.1.1-.3 0h-2.3c-.3.1-.6-.2-.6-.5-.1-.4.2-.6.5-.7q1-.1 2.5 0c.3.1.6.4.6.7 0 .2-.2.4-.4.5zm-9.2 2.4c-.3.1-.6 0-.8-.3-.1-.3 0-.7.3-.8q1-.6 2.2-1.1c.3-.1.7 0 .8.3.1.4 0 .7-.3.8q-1.1.5-2.1 1.1h-.1z"/><path d="M192.5 132.7c-7.3-4.1-17.3-12.7-25.9-13.5-5.8-.4-9.2 3.7-12.3 7.8-5.4 4.3-11.7 9.7-13.7 16.2-2.3 7.4 3.3 11.6 8.5 15.9q5.7 4.7 11.4 9.5c2.2 1.8 5.2 5.4 8.3 5.9 6.4.8 13.9-7.8 17.9-11.7 4.9-4.7 13.5-12.2 15.1-19.2 1.4-6.3-4.8-8.3-9.3-10.9z"/><path class="a" d="M174.5 168.1c-.2.1-.4 0-.6-.2-.1-.3 0-.5.2-.7q.8-.4 1.6-.9c.2-.2.5-.1.6.1.2.2.1.5-.1.6q-.8.6-1.6 1l-.1.1zm-3.5 1.2q0 .1-.1.1-.8.1-1.6 0-.2 0-.4-.1c-.2 0-.4-.3-.3-.5 0-.3.3-.4.5-.4q.2 0 .3.1.7 0 1.4-.1c.3 0 .5.2.5.4.1.3-.1.5-.3.5zm8-4.5c-.2 0-.4 0-.5-.2-.2-.2-.2-.5 0-.6q.7-.7 1.4-1.3c.2-.2.5-.2.6 0 .2.2.2.5 0 .7q-.7.6-1.4 1.3l-.1.1zm-13 2.7c-.2.1-.4 0-.5-.1l-1.4-1.2c-.2-.2-.2-.5 0-.7.1-.2.4-.2.6 0l1.4 1.2c.2.2.2.5.1.7q-.1.1-.2.1zm17-6.6c-.2 0-.3 0-.5-.1-.2-.2-.2-.5 0-.7q.5-.5 1-.9l.4-.4c.2-.2.4-.2.6 0 .2.2.2.5 0 .7l-.4.3q-.4.5-.9 1-.1 0-.2.1zm4-3.9c-.1.1-.3 0-.5-.1-.1-.2-.1-.5.1-.7l1.3-1.3c.2-.1.5-.1.6 0 .2.2.2.5 0 .7q-.6.7-1.3 1.3-.1.1-.2.1zm-25.2 6.8c-.2.1-.3 0-.5-.1l-1.4-1.2c-.2-.1-.2-.4-.1-.6.2-.2.5-.2.7-.1l1.4 1.2c.2.2.2.5.1.7q-.1.1-.2.1zm29.1-10.8c-.1.1-.3 0-.4-.1-.2-.2-.2-.5-.1-.6l1.2-1.4c.2-.2.5-.3.7-.1.2.1.2.4 0 .6q-.5.8-1.2 1.5-.1.1-.2.1zm3.4-4.4q-.2 0-.4-.1c-.2-.1-.3-.4-.1-.6q.5-.8.8-1.6c.2-.2.4-.3.7-.2.2.1.3.4.2.6q-.4.8-.9 1.7-.1.1-.3.2zm-36.8 11.6c-.2.1-.3.1-.5 0l-1.4-1.2c-.2-.2-.2-.5-.1-.7.2-.2.5-.2.7 0l1.4 1.1c.2.2.3.5.1.7q-.1.1-.2.1zm38.8-16.8h-.2c-.3 0-.5-.2-.5-.5q.1-.9-.1-1.7c-.1-.2 0-.4.2-.5h.1c.2-.1.5 0 .6.3q.2.9.2 2c0 .2-.2.3-.3.4zm-43.1 13.3c-.2 0-.3 0-.5-.1l-.1-.1q-.6-.6-1.3-1.1c-.2-.2-.2-.5 0-.7.1-.2.4-.2.6 0q.7.5 1.3 1.1l.1.1c.2.1.3.4.1.6l-.2.2zm40.7-18.1q-.3.1-.5 0-.6-.5-1.5-1c-.2-.2-.3-.5-.2-.7.2-.2.5-.3.7-.1q.9.5 1.6 1c.2.2.2.5.1.7q-.1.1-.2.1zM149 152.9c-.1.1-.3.1-.5-.1q-.7-.7-1.2-1.5c-.1-.2-.1-.5.1-.6.3-.2.5-.1.7.1q.5.7 1.1 1.4c.2.2.2.5 0 .6q-.1.1-.2.1zm40-17.1q-.2.1-.3 0l-.5-.2q-.7-.5-1.6-1c-.2-.1-.2-.4-.1-.6.1-.3.4-.3.6-.2l1.6 1 .4.2c.2.1.3.4.2.6q-.1.2-.3.2zm-42.6 12.3h-.1c-.3.1-.5-.1-.6-.3q-.1-1-.1-2c0-.3.3-.4.5-.4.3 0 .5.2.5.5q-.1.9.1 1.7c0 .2-.1.4-.3.5zm37.5-15.5q-.2.1-.4 0l-1.5-1.1c-.3-.1-.3-.4-.2-.6.2-.2.5-.3.7-.1l1.5 1c.2.1.3.4.1.6q0 .2-.2.2zm-36.7 10.1h-.4c-.2-.1-.3-.4-.2-.6q.3-.9.8-1.7c.2-.3.4-.3.7-.2.2.1.3.4.1.6l-.8 1.6q-.1.2-.2.3zm32.1-13.2q-.3.1-.5 0-.7-.5-1.5-1c-.3-.1-.3-.4-.2-.6.1-.2.4-.3.6-.2l1.6 1c.3.2.3.4.2.7q-.1.1-.2.1zm-29.1 8.5c-.2 0-.4 0-.5-.1-.2-.2-.2-.4-.1-.6q.6-.8 1.3-1.5c.2-.1.5-.1.7 0 .1.2.2.5 0 .7q-.7.7-1.2 1.4-.1.1-.2.1zm24.2-11.2q-.2.1-.4 0l-1.6-.8c-.3-.1-.4-.4-.3-.6.1-.2.4-.3.6-.2q.9.3 1.7.7c.3.1.4.4.3.7q-.1.1-.3.2zm-20.3 7.2c-.2.1-.4 0-.5-.1-.2-.2-.2-.5 0-.7l1.4-1.2c.2-.1.5-.1.7.1.2.2.1.5-.1.6l-1.4 1.2q0 .1-.1.1zm4.1-3.7c-.1.1-.3 0-.4-.1-.2-.1-.3-.4-.1-.6q.6-.8 1.2-1.5c.1-.2.4-.2.6 0 .2.1.3.4.1.6q-.6.7-1.2 1.5-.1.1-.2.1zm11-5.4q-.2.1-.3 0l-1.4-.2h-.4c-.2 0-.4-.2-.4-.5 0-.2.2-.4.5-.4h.4q.7.1 1.5.2c.2.1.4.3.4.6q-.1.2-.3.3zm-7.1 1.4c-.2.1-.4 0-.5-.2-.2-.2-.2-.5.1-.6q.8-.6 1.6-1c.3-.1.5 0 .7.2.1.3 0 .5-.3.6q-.8.4-1.5.9l-.1.1z"/><path d="M108.7 92.9c1.5.3 3.4 11.3 4.6 16.7 4-.3 14.2.4 15 2.9.7 2.4-8.2 6-12.3 8.6 2.6 6 4.8 19.3 1.7 19.7-3.1.4-11-8.5-14.2-13.9-5.7 4.9-11.5 14.1-14.8 11.6-3.3-2.6 4-20.1 3.7-21.4-.3-1.2-11.3-7.4-11.3-10.1 0-2.7 11.5-.3 17.3-.5 0 0 8.8-13.9 10.3-13.6z"/><path class="a" d="M91.4 134.8l-.2-.2c-.9-.6-1.1-2.1-.8-4.4 0-.2.2-.4.4-.3.2 0 .4.2.4.4-.4 2.5 0 3.4.4 3.7l.2.2c.2.1.2.3.1.5-.1.1-.3.2-.5.1zm2.8-.5q-.1 0-.1-.1c-.1-.2-.1-.4.1-.5 1.1-.7 2.3-2 3.3-3 .1-.2.4-.2.5 0 .2.1.2.3 0 .5-1 1.1-2.2 2.3-3.4 3.1q-.2.1-.4 0zm-3-6.7c-.2-.1-.2-.2-.2-.4.3-1.3.7-2.7 1.2-4.4.1-.2.3-.3.5-.3.2.1.3.3.2.5-.5 1.7-.9 3.1-1.2 4.4 0 .2-.2.3-.4.3l-.1-.1zm8.4 1.5v-.1c-.2-.1-.2-.4 0-.5.9-1.1 2-2.3 3.2-3.3.1-.1.4-.1.5 0 .1.2.1.4 0 .6-1.1 1-2.2 2.2-3.2 3.2-.1.1-.3.1-.5.1zm13.4 6.7h-.1c-1-.8-2.2-1.8-3.4-3.1-.2-.2-.2-.4 0-.5.1-.2.3-.2.5 0 1.2 1.2 2.4 2.3 3.4 2.9.1.2.2.4 0 .6-.1.1-.3.2-.4.1zm2.7 1l-.2-.2c0-.2.1-.4.3-.5q.2 0 .4-.4c.2-.4.5-1.3.4-3.4 0-.2.1-.4.3-.4.2 0 .4.2.4.4q.2 2.7-.5 3.8-.3.6-.8.8-.2 0-.3-.1zm-8.2-6.3h-.1c-1-1.2-2-2.5-2.8-3.7-.2-.1-.1-.4.1-.5.1-.1.4-.1.5.1.8 1.2 1.8 2.4 2.8 3.6.1.1.1.4-.1.5-.1.1-.3.1-.4 0zm-14.2-10.2c-.2 0-.2-.2-.2-.4.4-1.1.9-2.8.9-3.1 0 0-.1-.2-.7-.6-.2-.1-.2-.4-.1-.5.2-.2.4-.2.6-.1.7.6.9.8.9 1 .1.4-.1 1.2-.9 3.5 0 .2-.2.3-.4.3q-.1 0-.1-.1zm23.1 9.3q-.1 0-.2-.2c-.2-1.4-.5-3-.9-4.5 0-.2.1-.4.3-.4.2-.1.4.1.4.3.4 1.5.8 3 1 4.5 0 .2-.1.4-.3.4q-.2 0-.3-.1zm-25.5-15.2c-1.2-.8-2.5-1.8-3.7-2.7-.1-.1-.2-.4 0-.5.1-.2.3-.2.5-.1 1.1.9 2.5 1.9 3.6 2.7.2.1.2.4.1.5-.1.2-.3.2-.5.1zm-5.8-4.8q-.1 0-.1-.1-.5-.7-.5-1.2 0-.3.1-.5c.3-.7 1.3-1 3.2-1 .2 0 .3.2.3.4s-.1.4-.3.4c-2 0-2.5.3-2.6.5v.2c0 .1.1.4.4.8.1.1.1.4-.1.5-.1.1-.3.1-.4 0zm29.5 12.7l-.2-.2q-.3-1-.6-1.7c-.1-.2-.1-.4.1-.5.7-.5 1.6-.9 2.3-1.3.2-.1.5 0 .5.1.1.2.1.5-.1.6-.6.3-1.4.7-2 1.1q.3.6.6 1.5c0 .2-.1.4-.3.4q-.1.1-.3 0zm-24-14.6c-.1-.1-.2-.2-.2-.4s.2-.3.4-.3q1.3.1 2.6.3 1 .1 1.9.2c.3 0 .4.2.4.4s-.2.3-.4.3l-2-.2-2.6-.2q0-.1-.1-.1zm7.5.7c-.1-.1-.2-.2-.2-.4s.2-.3.4-.3h.7c.3-.4 1-1.6 1.9-2.9.1-.2.4-.2.5-.1.2.1.3.3.1.5-1.1 1.7-1.9 3-1.9 3q-.1.2-.3.2h-1.2zm20.8 9.5q-.1-.1-.1-.2c-.1-.2-.1-.4.1-.5 1.4-.7 2.9-1.5 3.9-2.3.1-.1.4-.1.5.1.1.2.1.4-.1.5-1 .8-2.6 1.7-3.9 2.4q-.2.1-.4 0zm-6.8-6.9q-.1-.1-.2-.3c0-.2.2-.4.4-.4 1.3 0 3 .1 4.6.2.2 0 .4.2.4.4-.1.2-.2.4-.5.3-1.6-.1-3.2-.2-4.5-.1q-.1 0-.2-.1zm-1-2.3q-.2-.1-.2-.3l-.2-.9c-.3-1.2-.6-2.4-.8-3.5-.1-.2.1-.4.3-.5.2 0 .4.1.4.3.3 1.2.5 2.4.8 3.5l.2 1c0 .2-.1.4-.3.4h-.2zm-8.4-5.9c-.2-.1-.2-.3-.1-.5q1.6-2.3 2.7-3.7c.2-.2.4-.2.6-.1.1.2.1.4 0 .6q-1.1 1.3-2.7 3.6c-.1.2-.3.2-.5.1zm17 8.8c-.2-.1-.2-.2-.2-.4s.2-.3.4-.3q3.5.6 4.5 1.7c.1.1.1.3-.1.5-.1.1-.4.1-.5 0-.5-.6-1.9-1.1-4-1.5h-.1zm-10.4-10.3q-.1-.1-.1-.2c-.9-3.3-1.4-3.8-1.5-3.9-.2 0-.3-.2-.3-.4s.2-.4.4-.3q.1 0 .2.1c.4.2 1 .9 1.9 4.3 0 .2-.1.4-.3.4q-.1.1-.3 0z"/><path d="M7 172.2c-1.6 13.7 4.8 30.8 10.2 43.2 6 14.2 14.6 28.6 26.5 38.8 3.6 3.1 8.4-1.7 5.2-5.2-10.4-11.5-19.3-22.9-25.8-37-6-13.1-7.7-27.7-13.7-40.5-.6-1.3-2.3-.5-2.4.7zM1.2 208c.7 19.3 14.9 37.3 27.3 51 2.3 2.6 5.9-1.1 3.7-3.7-12.8-15.1-22.4-28.8-28.9-47.6-.3-1.1-2.1-1-2.1.3zM159.7 22.8c23.4-9.7 43.9 4.9 54.7 25.3 2.2 4.1 8.1.5 6.2-3.6-11-23.6-37.9-39.1-62.7-25.9-2.3 1.2-.7 5.2 1.8 4.2zm16.1-17.5c11.2-.1 20.8 1.9 30 8.5 3.1 2.2 6-2.9 3-5.1-9.4-7.1-22.1-10.5-33.5-7.1-2 .6-1.7 3.7.5 3.7z"/><path d="M173.3 30.5c8.2-.3 13.4 3 19.5 8.1 2.5 2.1 6.1-1.4 3.6-3.7-6-5.6-15.5-12.1-23.9-7.3-1.3.8-.7 3 .8 2.9z"/></svg>