<svg version="1.2" xmlns="http://www.w3.org/2000/svg" viewBox="0 0 283 252" width="283" height="252"><style>.a{fill:#fff}</style><path d="M182.4 197.5c-12.3-26.1-31.9-47.9-43.5-74.3-6-13.5-10-27.8-16-41.3-1.6-3.5-3.2-8.6-7.1-10.1-4.8-1.9-49.9 14-64.6 18.3-16 4.8-32.8 9-48.3 15.4-.6.1-1.2.3-1.7.7-1.2.5-1.1 1.6-.6 2.4v.1c9.3 24.2 21.2 47.4 30.6 71.6 8.3 21.4 13.6 47.5 27 66.6 3.4 4.9 6.9 5.7 12.4 3.7 12.1-4.6 23.9-11 35.8-16.2 24.6-10.7 49.6-20.3 74.3-30.7 2.4-1 2.7-4.2 1.7-6.2z"/><path class="a" d="M115.4 220.1q-15.4 6.7-30.7 13.7c-4.7 2.1-10.3 5.8-15.3 7-4.5 1.1-3.4 1.2-5.7-3q-2-3.8-3.9-7.8c-9.1-19.3-15.2-40-23.6-59.7-8.9-20.8-18.3-41.8-29.5-61.5 16.2-2.8 32.3-8 48.1-12.2 16.8-4.5 33.8-8.7 50.3-13.9 2.2-.5 4.4-1 6.5-1.2 5.2 8.8 7.6 20.6 11.2 29.8 4.1 10.4 8.4 20.7 14.1 30.4 10.9 18.8 26.6 35.3 35.5 55.3-19.3 7-38.2 15-57 23.1z"/><path fill-rule="evenodd" d="M158 197.8c-2.6 3.3-10.7 3.8-14.4 4.8-7.2 2-14.5 3.9-21.7 6.2-7.9 2.5-15.7 5.5-23.1 9.4-5.8 3-11.6 9.3-18 10.9-9.9 2.4-13.5-12.7-16.6-19.3-6.8-14.5-12.9-29.3-18.5-44.4-5.2-14.4-9.7-28-18.4-40.7l-1.2-.2c-2.7-.5-2.5-4.8.1-5.3 19.5-3.7 36.3-11.8 54.4-19.5 7.7-3.3 21.9-10.1 28.1-1.1 3 4.4 3.4 10.8 5.1 15.8 2.3 7.3 5.5 14.1 9.2 20.8 7.3 13.4 16.4 25.9 24.7 38.7 2.9 4.6 15.2 18.1 10.3 23.9zm-7.9-9.7c-1.1-2.8-3.6-6.1-5.3-8.7-4.2-6.8-8.7-13.4-13-20-7.6-11.5-15-23.1-20.2-35.8-3.3-8-4.2-24.3-16.2-24.1-7.5.1-15.5 5.5-22 8.8-13.6 6.9-27.3 12.1-42.1 15.4q-.4.6-1.1.9c8.5 9.5 13.1 20.2 17.6 32.2 6.5 17 13.5 33.8 21.5 50.2 1.6 3.3 3 7.6 5.2 10.6 4.5 6 5.3 5.6 11.2 1.6q8.5-5.8 17.9-9.9c13.4-6 27.7-9.8 41.9-13.5 5.6-1.5 6.8-2 4.6-7.7z"/><path d="M93.1 142.7c-10.8-6.9-21.9 4.6-23.7 14.8-2.5 14.3 6.4 29.2 22.1 28.2 13.7-.9 25.2-15.7 19.5-28.9-5.1-12.1-21-19.2-32.9-12.5-2.5 1.4-.9 5.9 2 4.9 7.8-2.9 16.7-1.6 22.4 5 8.1 9.6 2.6 23.4-9.4 26.2-25.3 5.9-27.9-41.6-.2-37.2.3.1.5-.3.2-.5z"/><path d="M68.9 125c0 2.4 1.3 4.7 2.1 6.9q1.4 3.7 2.9 7.4c1.3 3.2 6 1.3 4.4-1.8q-1.7-3.6-3.6-7.1c-1.1-2.1-2-4.6-3.7-6.2-.7-.7-2.1-.3-2.1.8zm-10.1 13.3c1.7 1.5 4 2.5 6.1 3.6 2.2 1.3 3.9-2.3 1.4-3.2-2.2-.8-4.5-1.9-6.8-2.2-.8-.1-1.4 1.2-.7 1.8zm-3.2 15.9c2.3 1.3 5.6 2.2 8.2 1.6 1.4-.3 1.5-2.6.1-2.9-1.4-.3-2.6-.3-3.9-.3-1.3.1-2.7 0-4 .1-.7.1-1.2 1.1-.4 1.5zm4.8 19.9c1.5-.9 3-1.6 4.7-2 2.2-.6 1-3.8-1.2-2.9-1.8.7-3.4 1.7-4.7 3.2-.7.9.1 2.3 1.2 1.7zm13 21.6c1.3-.6 1.8-2.4 2.4-3.5.9-1.5 1.9-2.6 2.5-4.2.4-1.5-1.3-2.8-2.6-2-1.8 1-2.6 2.8-3.3 4.6-.6 1.5-1.3 3.6-.1 4.9.2.4.7.3 1.1.2zm26 2.4c.1-.9.1-1.9.2-2.9.2-1 .4-1.9.3-3-.1-1.9-2.8-2.4-3.4-.5-.6 2-.3 4.8.7 6.7.4.8 2 .7 2.2-.3zm17.2-14.4h-.1q.1.2.3.4v-.2q-.1.3-.1.5l.1-.1q-.4.1-.7.1c.8.4 1.6 1.6 2.2 2.3q1.2 1.1 2.4 2.3c1.9 1.8 4.3-1.5 2.2-2.7l-3-1.6c-.9-.4-2-1.1-3-1.4-.9-.2-1.6 1-.6 1.4.6.3.9-.7.3-1zm6.4-15.5c2.1.3 4.6-.8 6.4-1.9 2.3-1.5-.2-4.9-2.2-3-1.5 1.3-3.1 1.9-4.7 2.9-1 .6-.6 1.9.5 2zM111.5 147c2.3-1.4 4.1-3.3 5.1-5.9.7-1.5-1.8-2.2-2.4-.7-.9 2-2.1 3.8-3.7 5.3-.7.6.2 1.8 1 1.3zm-20.2-14c1.6-3.2 2.6-6.6 3.1-10.1.2-1.5-2.3-1.6-2.4-.1-.2 3.3-.9 6.5-2 9.6-.3.8 1 1.4 1.3.6zm191.4 36.3c-6.6-28.1-21.2-53.5-27-81.7-2.9-14.5-3.9-29.3-6.9-43.8-.8-3.8-1.3-9-4.8-11.4-4.3-2.8-51.7 3.2-67 4.4-16.7 1.2-34 1.8-50.4 4.8-.7-.1-1.3 0-1.8.3h-.1c-1.2.3-1.4 1.3-1.1 2.2v.1c4 25.7 10.7 50.8 14.8 76.5 3.6 22.7 3.3 49.3 12.4 70.8 2.3 5.5 5.5 7 11.3 6.2 12.9-1.9 25.7-5.7 38.4-8.2 26.3-5.3 52.8-9.5 79.1-14.4 2.6-.5 3.6-3.6 3.1-5.8z"/><path class="a" d="M212.4 177.4q-16.5 3.2-33 6.8c-5 1.1-11.2 3.6-16.4 3.7-4.6.1-3.5.4-4.9-4.1q-1.2-4.2-2.2-8.5c-4.8-20.8-6.4-42.3-10.5-63.3-4.3-22.3-9.1-44.8-15.9-66.4 16.5.7 33.3-1 49.7-1.8 17.3-.9 34.8-1.3 52.1-3 2.2 0 4.4 0 6.6.3 3.1 9.7 3.1 21.7 4.6 31.4 1.8 11.1 3.9 22.1 7.4 32.7 6.7 20.7 18.6 40.2 23 61.6-20.2 2.7-40.4 6.6-60.5 10.6z"/><path fill-rule="evenodd" d="M243.3 103.1c4.1 11.8 8.9 23.3 12.6 35.1 1.6 5.2 4.5 13.6-.3 17.8-3.8 3.4-12 4.6-16.9 5.9-7 2-14.1 3.5-21.2 4.8-8.2 1.6-16.5 3-24.7 4.6-5.8 1.1-12.3 3.8-18.1 3.9-9.7.2-9.3-15.8-10.5-22.7-2.8-16.4-5.3-32.8-9-49.1-3.4-14.7-9.2-29.2-12.5-43.9-1.3-.6-1.6-2.5-.7-3.4 0-.1.5-.5.6-.5q.3-.1.8-.2c19.2-.7 37.8-3.4 56.8-5.4 11.7-1.2 25.5-3.6 30.3 9.3 5.2 14.3 7.9 29.4 12.8 43.8zm-2.1 6.9l-.8-2.4c-.7.1-1.5 0-2.2-.7-2.3-2.4-6.5-6.9-10.5-5-2 1-4.1 7.4-5.1 9.7q-1.4 2.8-2.5 5.7c1.4 1 2.1 2.2 4 1.5 1.9-.7 1.8-1.8 2.3-3.7.3-.9 1.7-1.6 2.4-.7.2.3 2.4 3 2.7 2.9.4-.3.1-1.3.4-1.9.4-.8.8-1 1.7-1.2 1.2-.1 2.2.9 3.3.9 1.9 0 1 .4 2.4-1.7.3-.4 1.6-2.3 1.6-2.5-.1-.4.1-.7.3-.9zm-83.5-11c3.7 14 6.2 28.2 8.7 42.4 2-6.6 4.3-13.2 7-19.5 1.8-4.3 4.3-12.2 8.9-14.4 4.7-2.3 8.3 2.5 11.6 5.4q.5.4 1 .9c5.4-6.3 15.3-8.7 23.3-7.2 1.9-4.1 4.1-7.8 6.8-10.7 3.7-4 8.4-1.2 12.3 2.2-1.9-6.1-3.8-12.3-5.4-18.5-2-7.3-3.6-22.3-11.5-25.4-7.4-2.8-19.8.2-27.2 1.2-16.1 2.2-32.1 4.5-48.5 4.3 6.1 12.1 9.6 26.5 13 39.3zm41.2 24.5c-6.1-6.2-13-11.5-17.4-8.2-3.1 2.3-5.4 9.3-7.1 13.3 2.9 6.2 1.4-1.2 4.7-1.9 1.4-.3 2.2.8 3.1 1.7.6.6 2 2.9 2.9 3.1 3.1.4 3.6-3.8 4.1-5.6.2-.9 1.4-1.3 2-.6 1.3 1.2 3.4 4.7 5.5 4.1 1-.3 1.8-3.8 2.2-5.9zm11.7 5.9c1.5-6.2 3.5-13.2 6.2-19.6-7.9-.9-14.1 1.2-20.8 5 5.1 4.7 9.9 9.5 14.6 14.6zm40.7 8.7c-26.6 8.8-55 11.6-82.1 18.8q.5 2.7 1.1 5.4c1.3 5.8.3 8.2 8 7.8 7.5-.4 15.7-3.3 23.1-4.7 14.4-2.6 32.5-3.7 45.6-10.6 8.3-4.3 6.7-9.6 4.3-16.7zm-6.3-17.5q-1.3-3.4-2.4-6.8l-.6.8c-1 2.1-.7 4-3.7 3.7-1.1-.1-2.3-.9-3.3-.9q-.6-1.5-.5-.1-.1 1-.4 1.9c-.3.7-.6 1.4-1.4 1.7-1.5.5-3.1-.9-4.3-2.3-.6 1.8-1.6 3.6-3.5 3.8-2.2.3-4.3-2.1-5.2-4.1-2.2 5.5-3.9 11.1-5.3 16.8-.4 1.8-2.9 2.8-4.2 1.3-1.8-2-5.3-6.5-9.4-11-.7 2.7-1.8 6.1-3.7 6.9-2.2.9-4.4-1.5-6.1-3.5-.8 2.9-2.1 6.9-5 6.3-1-.2-1.9-1.3-2.5-1.9q-1.3-1.2-2.4-2.5-.9-2.4-1.7-.4c-1.4 1.1-1.2 3.3-2.8 4.4-.3.2-.6.1-.9 0-1.5-.7-1.9-2.6-2-4.4-2.2 4.4-4.3 8.8-6.8 13.1 0 .1-.1.1-.1.1q.4 2.2.8 4.5l1.4 8c25.5-11.2 54.6-13.3 81.3-20.7-1.7-5-3.5-9.8-5.3-14.7z"/><path d="M192.4 106.1c1.2.2 2.1.8 2.8 1.7.5.5 1.4-.2 1-.8-.9-1.2-2.2-1.8-3.7-1.8-.5 0-.6.8-.1.9zm6.1-3.3c.8.8 1.4 1.8 2 2.8.4.7 1.7.2 1.4-.7-.4-1.2-1.2-2.1-2.1-3-.7-.6-1.8-1.7-2.9-1.6-.2 0-.4.2-.3.5.4.8 1.3 1.3 1.9 2zm9.7-2.2c.1 1.1.1 2.2.3 3.3.3 1 1.8.9 1.9 0 .3-1.3.1-2.5-.2-3.7-.3-1.1-.6-2.5-1.3-3.5-.4-.5-1.5-.4-1.4.5.1 1.1.5 2.2.7 3.4zm6.3 2.3c0 1.1 1.6 1.5 2.2.5.9-1.7.6-3.7-.1-5.4-.6-1.5-2.8-.9-2.4.7.4 1.4.3 2.8.3 4.2zM107 56.7c-4.5.9-9.1 1.7-13.9 2.6-12.8 2.3-25.9 4.6-37.3 9.4l-.8.3.3 1.7h3.3c11.8 0 24.1-2.4 36-4.7 4.8-.9 9.5-1.8 14-2.6 1.2-.2 2.1-.9 2.5-1.9.4-1.2.1-2.7-.8-3.7-.8-1-2.1-1.4-3.3-1.1zm-39.5 1.7q2.8.5 5.7.5c8.4 0 17.3-2.5 25.9-5.3 1.2-.4 2.1-1.4 2.4-2.7.2-1.4-.3-2.9-1.3-3.7-.9-.8-2.1-.9-3.2-.5-5.6 2.2-11.4 3.4-17 4.6-4.1.9-8.4 1.9-12.6 3.2-.9.2-1.5 1.2-1.5 2.2.1.9.7 1.6 1.6 1.7zm186.1-48.2c-9.1-5.9-19.5-6.7-28.7-2.1-1 .5-1.4 1.6-1.1 2.8.3 1.1 1.2 1.8 2.3 1.7 9.7-.8 18.4-.9 26.2 5.6 8.6 7.1 10.2 16.8 10 23.7 0 2.7 2 4.1 4 4.2h.1c2.1 0 4.2-1.4 4.4-4.1.5-12.1-6.4-24.8-17.2-31.8zm23.7 11.9C274.8 12 266.6.9 256.2.3c-.8 0-1.7.6-2 1.5-.4.8-.1 1.7.5 2.3 1.2.9 2.5 1.8 3.7 2.6 2.2 1.6 4.4 3.1 6.2 5.1 3 3.3 5 7.4 6 12.1.2 1.2 1 2 2.1 2.4q.5.2 1 .2c1 0 1.9-.4 2.7-1.1.9-.8 1.2-2 .9-3.3zM248 187.3c-.4.1-34.9 1.5-40 8.9-.8 1.1-.9 2.2-.5 3.4.2.6.7 1 1.4 1h.1c.5 0 1-.3 1.3-.8 1.1-2.3 12.1-3.3 15.8-3.6 1-.1 1.9-.1 2.4-.2 6.4-.8 13-1.2 19.5-1.5 2.4-.1 3.6-2.1 3.5-3.9-.1-1.7-1.4-3.4-3.5-3.3zm-7.8 9.6c-3.2.6-6.4 1.4-9.6 2.1q-1.6.5-3.3.9-1 .2-2.1.4c-3.1.7-6.3 1.4-9.1 3.2-.5.3-.8 1-.7 1.7.1.6.6 1.1 1.2 1.2q1.4.2 2.8.2c2.2 0 4.4-.4 6.5-.7q1-.2 1.9-.3 1.8-.3 3.7-.6c3.4-.5 6.9-1 10.3-1.8 1.8-.3 2.7-1.8 2.4-3.5-.3-1.7-1.8-3.2-4-2.8zM34.3 219.2q-.9-2-1.7-4.2c-2.9-7-6.2-14.9-11.5-20-.8-.8-2-1-3.3-.4-1.4.7-1.6.9-2.3 2.5-.4.9 0 2.1.8 2.6.4.3.9.4 1.4.2 2.1 3.6 10.6 21.7 11.4 23.5 3.3 8.3 6.2 16.9 8.7 24.5.5 1.6 1.8 2.3 3.1 2.3q.6 0 1.1-.2c1.5-.4 2.7-1.9 2.1-3.9-2.5-8.5-5.7-17.3-9.8-26.9zM14.9 212c-.7-.7-1.7-.8-2.5-.2-.7.5-1 1.5-.6 2.4 1.1 2.6 2.6 5.1 4 7.5 1.1 1.7 2.2 3.6 3.1 5.4 2.6 5 4.6 10.3 6.2 14.8.5 1.4 1.8 2 3 2q.6 0 1.1-.2c1.5-.6 2.3-2 1.7-3.6-3-8.5-8-20.7-16-28.1z"/></svg>