<svg width="107" height="108" viewBox="0 0 107 108" fill="none" xmlns="http://www.w3.org/2000/svg"><g clip-path="url(#clip0_274_61)" fill-rule="evenodd" clip-rule="evenodd" fill="#000"><path d="M38.098 100.9l3.427 3.8h44.057l3.65-3.8H38.099zm-2.684-1.355A1.395 1.395 0 0136.6 98.9h54.2c.479 0 .932.24 1.186.645a1.25 1.25 0 01-.17 1.553l-4.818 5.015a1.305 1.305 0 01-1.098.587H41.2a1.305 1.305 0 01-1.11-.604l-4.52-5.013a1.25 1.25 0 01-.156-1.538zM58.318 1.404h.002a1 1 0 01.161 1.993l-.012.001a6.336 6.336 0 00-.334.045 9.378 9.378 0 00-.992.22c-.825.23-1.88.637-2.855 1.346l-.02.014c-3.526 2.435-3.097 8.008.895 10.09a1 1 0 01.244.18c.07.07.117.1.136.11 2.314 1.107 4.336 3.278 4.456 6.155.057 1.357-.198 2.905-1.167 4.36-.97 1.454-2.59 2.718-5.092 3.623a1 1 0 11-.68-1.881c2.198-.795 3.428-1.832 4.108-2.852.68-1.02.876-2.123.833-3.166-.08-1.918-1.45-3.544-3.33-4.439l-.018-.008c-.2-.1-.38-.23-.542-.376-5.091-2.769-5.812-10.094-.99-13.435 1.223-.886 2.514-1.377 3.486-1.647a11.383 11.383 0 011.564-.318l.102-.011.031-.003.01-.001h.004zm.082.996l-.08-.997.08.997zM21.8 39.584c.009-1.292 1.102-2.284 2.4-2.284h79a2.366 2.366 0 012.4 2.398v.002h-1l1-.005v.003c.1 21.84-5.754 35.438-12.157 43.762-6.396 8.314-13.273 11.281-15.086 11.974l-.056.022-.058.014c-.344.086-.692.13-1.043.13H49.9c-.47 0-.93-.095-1.371-.271l-.02-.008-.018-.008a37.03 37.03 0 01-10.787-7.338 15.334 15.334 0 01-.12-.076c-.24-.15-.594-.367-1.044-.626a38.02 38.02 0 00-3.678-1.857c-3.036-1.327-6.867-2.494-10.356-2.122l-.009.001-.01.001c-3.488.308-6.981.114-10.299-1.385l-.01-.004c-4.433-2.062-9.884-6.071-10.963-13.634l-.009-.042-.039-.207a18.273 18.273 0 01-.119-.758 25.28 25.28 0 01-.215-2.669c-.063-2.2.126-5.171 1.158-8.195 1.036-3.035 2.924-6.128 6.248-8.52 3.156-2.27 7.537-3.861 13.564-4.233a77.978 77.978 0 01-.003-4.065zm0 0v.016h1l-1-.027v.011zm12.1 44.105a43.78 43.78 0 01-1.377-1.891c-3.236-3.653-8.487-4.506-11.388-4.7h-.017c-2.499-.209-5.077-.838-7.262-2.258l-.014-.01-.014-.01c-1.02-.713-1.974-1.451-2.734-2.212l-.011-.01-.01-.012c-3.336-3.551-4.652-8.843-2.91-13.53 1.639-4.53 5.369-6.887 8.557-8.102a22.317 22.317 0 015.081-1.261v-4.039c-5.667.368-9.626 1.862-12.392 3.852-2.93 2.108-4.597 4.828-5.524 7.543-.93 2.727-1.11 5.442-1.052 7.492.03 1.022.118 1.868.198 2.456a16.28 16.28 0 00.137.844l.008.04.002.007v.001l.008.036.005.037c.932 6.613 5.668 10.195 9.827 12.13 2.878 1.299 5.98 1.505 9.286 1.214 4.008-.425 8.223.907 11.36 2.279.08.034.158.07.236.104zm.37-2.928l5.197 6.133a35.018 35.018 0 009.822 6.585c.218.085.42.122.612.122h27.3c.165 0 .332-.018.503-.057 1.686-.652 8.124-3.464 14.154-11.303 6.097-7.926 11.842-21.077 11.743-42.535V39.7c0-.248-.152-.4-.4-.4h-79c-.297 0-.4.2-.4.3v.027c-.1 3.604-.048 14.286 3.222 25.48 1.548 5.296 3.804 10.67 7.081 15.459l.163.19.002.004zm-12.994-5.657c1.998.134 5.35.576 8.488 2.152-2.019-3.767-3.53-7.718-4.66-11.587-1.45-4.96-2.282-9.814-2.751-14.027a20.3 20.3 0 00-4.92 1.18c-2.911 1.11-6.03 3.153-7.391 6.919l-.004.009c-1.454 3.908-.374 8.407 2.481 11.455.635.633 1.472 1.287 2.441 1.967 1.81 1.172 4.024 1.74 6.316 1.932zM75.9 6l-.12-.993h-.002l-.003.001-.01.001-.028.004a9.532 9.532 0 00-.45.075c-.295.057-.707.148-1.192.29-.963.28-2.244.768-3.458 1.596l-.005.003c-4.872 3.364-4.106 10.891 1.105 13.61l.016.008c.171.085.364.162.568.233 1.815.884 3.1 2.58 3.18 4.416l.002.04a4.852 4.852 0 01-.788 3.14c-.686 1.04-1.924 2.102-4.08 2.945a1 1 0 00.73 1.862c2.444-.956 4.056-2.244 5.02-3.705.961-1.457 1.225-3.005 1.113-4.39-.128-2.737-2.016-5.019-4.368-6.139a.989.989 0 00-.114-.046 2.97 2.97 0 01-.362-.142c-3.98-2.084-4.412-7.749-.888-10.184.985-.671 2.053-1.083 2.889-1.327a11.131 11.131 0 011.285-.294c.03-.004.053-.007.066-.01l.014-.001a1 1 0 00-.24-1.986L75.9 6z"/><path d="M97.5 47.1a1 1 0 011 1h-1 1v.066l-.003.178c-.003.153-.009.378-.02.666-.024.577-.07 1.409-.162 2.443a62.97 62.97 0 01-1.29 8.205c-1.469 6.497-4.426 14.602-10.409 20.74a1 1 0 01-1.432-1.396c5.617-5.762 8.46-13.457 9.89-19.785a60.965 60.965 0 001.249-7.942c.089-.998.133-1.798.155-2.345a30.88 30.88 0 00.022-.782V48.1m1-1a1 1 0 00-1 1z"/></g><defs><clipPath id="clip0_274_61"><path fill="#fff" transform="translate(.5 .5)" d="M0 0h106v107H0z"/></clipPath></defs></svg>