<svg width="100" height="100" viewBox="0 0 100 100" fill="none" xmlns="http://www.w3.org/2000/svg"><path fill-rule="evenodd" clip-rule="evenodd" d="M46.648 19.172a2.396 2.396 0 012.391-2.391c1.264 0 2.313 1.1 2.313 2.391 0 1.238-1.075 2.313-2.313 2.313-1.29 0-2.391-1.049-2.391-2.313zm2.391-.797a.802.802 0 00-.797.797c0 .331.334.718.797.718.358 0 .718-.36.718-.718 0-.463-.387-.797-.718-.797zm7.654 14.909a.797.797 0 00-1.594-.004v.019l-.001.015-.002.03a3.31 3.31 0 01-.024.239c-.03.21-.088.507-.206.84a3.77 3.77 0 01-1.616 2.007l-.004.002c-.805.495-1.922.585-2.965.307l-.006-.001-.006-.002c-1.2-.3-2.465-1.003-2.878-2.066l-.014-.035-.016-.033c-.368-.735-1.417-.747-1.807-.035-.063.106-.12.207-.174.304-.193.345-.355.633-.686.917l-.03.025-.026.027c-1.555 1.615-4.47.665-4.857-1.727a.797.797 0 00-1.574.255c.567 3.497 4.96 5.257 7.554 2.605.282-.247.503-.52.678-.773.893 1.177 2.35 1.809 3.438 2.082 1.347.358 2.936.288 4.203-.49a5.364 5.364 0 002.289-2.836 5.91 5.91 0 00.282-1.156 4.848 4.848 0 00.041-.464l.001-.033v-.019zm-.797 0h.797-.797z" fill="#000"/><path d="M38.137 17.88a.797.797 0 00-1.476-.604c-.87 2.128 0 4.623 2.014 5.776l.954.556a.797.797 0 10.803-1.377l-.957-.558-.006-.004c-1.332-.76-1.896-2.41-1.332-3.79z" fill="#000"/><path fill-rule="evenodd" clip-rule="evenodd" d="M65.137 46.071l.001-.01v-.003C67.83 24.841 51.513 11.996 46.376 8.545l-.008-.006-.009-.005c-1.14-.726-2.693-.732-3.847.107l-.006.005c-5.356 3.976-9.168 8.601-11.923 13.057l-.003.004c-10.42 17.095-5.868 39.486 10.504 50.895.608.441 1.188.801 1.619 1.069.19.118.352.219.474.3.74.493 1.606.483 2.313.13l.017-.009.016-.009c8.75-4.883 13.654-11.887 16.367-17.657a41.134 41.134 0 002.638-7.33c.237-.931.388-1.685.482-2.21a19.641 19.641 0 00.121-.77l.006-.045zM31.94 22.54c2.666-4.312 6.347-8.775 11.512-12.61.597-.433 1.43-.44 2.043-.055 5.076 3.413 20.629 15.76 18.061 35.986v.009l-.002.007-.004.033-.02.14c-.017.125-.047.313-.09.558a29.97 29.97 0 01-.457 2.098 39.538 39.538 0 01-2.536 7.042C57.839 61.294 53.14 68 44.762 72.681a.682.682 0 01-.702-.037c-.194-.13-.394-.253-.609-.386l-.002-.001a21.28 21.28 0 01-1.435-.95l-.007-.005-.006-.004C26.328 60.38 21.952 38.928 31.94 22.539zM51.2 75.546c-.713-.549-1.597-.708-2.376-.673-.779.035-1.555.269-2.126.632l-.028.018-1.977 1.502a.42.42 0 01-.188.05.174.174 0 01-.085-.017l-2.209-1.8-.09-.042c-1.508-.704-3.434-.32-4.476 1.033-2.158 2.797-6.078 8.488-7.162 14.336-.136.516.152.944.44 1.145a1.11 1.11 0 001.24.031l12.533-7.645 12.933 7.728c.276.175.587.19.85.107a1.18 1.18 0 00.541-.374c.223-.267.396-.701.28-1.162l-.003-.014-.027-.093c-.732-2.524-2.94-10.132-8.022-14.722l-.023-.021-.025-.02zm-5.62 2.808l2-1.52c.308-.187.794-.344 1.316-.368.524-.024.986.09 1.31.327 4.238 3.845 6.364 10.06 7.282 13.11l-12.131-7.25-.027-.013a1.431 1.431 0 00-.636-.144c-.195 0-.422.038-.635.144l-.03.015-11.75 7.168c1.253-5.084 4.628-10.007 6.629-12.6v-.001c.536-.696 1.588-.957 2.456-.598l2.082 1.697.013.01c.629.471 1.466.416 2.084.045l.038-.022zm23.363-37.531c-.868-1.037-2.514-.48-2.676.813l-1.191 9.85c-.096.456.036.89.349 1.223l2.751 3.38c.335.46.881.498 1.237.368.188-.068.391-.201.53-.42a.977.977 0 00.14-.703l-.316-5.202v-.007c-.043-.557.45-1.134 1.118-1.134h2.631c.39 0 .766-.2.966-.56.21-.378.163-.818-.064-1.158l-.025-.039-5.45-6.411zm-1.111 1.154l-1.176 9.72 1.738 2.134-.218-3.59c-.112-1.514 1.147-2.845 2.709-2.845h1.553l-4.606-5.419z" fill="#000"/></svg>