<svg width="64" height="108" viewBox="0 0 64 108" fill="none" xmlns="http://www.w3.org/2000/svg"><g clip-path="url(#clip0_274_87)"><path d="M39.8 33.1s0 3.1-2.8 4.8c-1.3.8-3 .9-4.5.5-1.6-.4-3.6-1.4-4.3-3.2-.1-.2-.4-.2-.5 0-.3.5-.6 1.2-1.3 1.8-2.6 2.7-7.2 1-7.8-2.7m-2-20.9c-.9 2.2 0 4.8 2.1 6l1.2.7M23.6 3c1.1-.8 2.6-.8 3.7-.1C33.7 7.2 53.7 23 50.4 49c0 0-2.6 22.4-24.1 34.4-.6.3-1.3.3-1.9-.1-.6-.4-1.5-.9-2.6-1.7C1.7 67.6-3.9 40.1 8.9 19.1 12.3 13.6 17 7.9 23.6 3zm5.2 83.9l-2.5 1.9c-.5.3-1.1.3-1.5 0l-2.7-2.2c-1.5-.7-3.4-.3-4.4 1-2.7 3.5-7.5 10.5-8.8 17.6-.1.3.3.6.6.4l15.9-9.7c.2-.1.5-.1.7 0l16.4 9.8c.3.2.7-.3.6-.7-.9-3.1-3.6-12.5-9.8-18.1-1.3-1-3.4-.7-4.5 0zm2.4-69.6c-1.1 0-2-.9-2-1.9 0-1.1.9-2 2-2 1 0 1.9.9 1.9 2 0 1-.9 1.9-1.9 1.9zm24.2 25.9l6.8 8c.2.3 0 .6-.3.6h-3.3c-1.4 0-2.5 1.2-2.4 2.5l.4 6.6c.1.3-.4.5-.6.2l-3.5-4.3a.694.694 0 01-.2-.7l1.5-12.4c.1-.8 1.1-1.1 1.6-.5z" stroke="#000" stroke-width="2" stroke-miterlimit="10" stroke-linecap="round"/></g><defs><clipPath id="clip0_274_87"><path fill="#fff" transform="translate(.5 .5)" d="M0 0h63v107H0z"/></clipPath></defs></svg>