<svg width="92" height="104" viewBox="0 0 92 104" fill="none" xmlns="http://www.w3.org/2000/svg"><g clip-path="url(#clip0_274_70)"><path d="M39.027 17.313a1 1 0 101.746.974l-1.746-.974zM62.2 12.4l.275-.962-.02-.005-.02-.005-.235.972zm.7 1.7l.82.574.006-.01.006-.01-.832-.554zM51.4 22l.242.97.027-.006.026-.008L51.4 22zm-.4 1.9l-.707.707.03.03.034.029L51 23.9zm5.8 12.2l.97.243.013-.052.007-.052-.99-.139zm-.9.7l-.038 1h.038v-1zm-15.3-5.3l-.747.664.015.018.017.017.715-.699zm-3.3-.9l-.242-.97-.009.002.251.968zM26.8 40.7l-.907-.422-.006.014-.006.014.919.394zm-1.6 0l-.924.382.005.012.919-.394zM24.8 27l.86.512.018-.032.016-.033L24.8 27zm-10.4 1l-.698-.716-.01.009.708.707zm-.8-.3l-.984-.179-.016.089v.09h1zm6.8-9.7l.507.862.01-.005.008-.006L20.4 18zm11.1 0l.496-.868-.008-.005L31.5 18zm.204 1.268a1 1 0 10.992-1.736l-.992 1.736zm-17.402 9.344a1 1 0 00-1.404-1.424l1.405 1.424zM2.8 65.7l.98-.198v-.001l-.98.199zm18.8 28.2l-.572.82.002.002.57-.822zm25 8.3l.078-.997-.039-.003H46.6v1zM77.1 90l.694.72.003-.003L77.1 90zm12.8-25.4l-.989-.149v.005l.989.144zM62.218 14.592a1 1 0 10-.836 1.817l.836-1.817zM34.5 15.5l-.91.415a1 1 0 00.95.584l-.04-.999zm-6.3-8.7l-.514.858.003.002.511-.86zm.1-1.5l.447.894L28.3 5.3zm7-3.5l.447.894c.023-.011.045-.023.068-.036L35.3 1.8zm1.2.7h-1a1 1 0 000 .039l1-.039zm.5 12.9l.04 1a1 1 0 00.96-1.04l-1 .039zm34.764 12.753a1 1 0 00-1.328 1.494l1.328-1.494zm1.43 4.438a1 1 0 001.612-1.182l-1.612 1.182zm3.63 1.342a1 1 0 00-1.648 1.134l1.648-1.134zm.308 43.27a1 1 0 001.736.994l-1.736-.994zM39.9 17.8l.873.488-.001.001v.002c-.001 0-.001 0 0 0l.005-.01.034-.056c.034-.053.089-.138.166-.248.156-.22.402-.54.752-.92.698-.756 1.806-1.743 3.421-2.614 3.208-1.732 8.526-3.07 16.816-1.07l.468-1.945c-8.71-2.1-14.541-.739-18.234 1.255-1.835.99-3.115 2.123-3.941 3.019a11.16 11.16 0 00-.914 1.12 7.324 7.324 0 00-.308.473l-.006.01-.003.005v.001c0 .001-.001.002.872.489zm22.025-4.439c.008.003.026.01.051.033.026.024.05.058.066.096a.184.184 0 01.017.074c0 .006 0-.004.009-.019l1.664 1.11c.425-.638.39-1.38.151-1.945-.237-.561-.726-1.077-1.408-1.272l-.55 1.923zm.156.166c-1.306 1.865-4.438 5.499-10.976 7.518l.59 1.91c7.062-2.18 10.53-6.147 12.024-8.281l-1.638-1.147zM51.157 21.03c-.844.211-1.327.896-1.463 1.574-.133.67.04 1.443.599 2.003l1.414-1.414a.223.223 0 01-.051-.197c.007-.035.018-.047.015-.044a.063.063 0 01-.024.016l-.003.002h-.002l-.485-1.94zm-.8 3.636c2.466 2.071 6.174 6.154 5.453 11.295l1.98.278c.879-6.259-3.613-10.976-6.147-13.105l-1.286 1.532zm5.473 11.192a.14.14 0 01.019-.045l.004-.006c-.002.002-.002 0 .003 0a.132.132 0 01.044-.007v2c.847 0 1.656-.6 1.87-1.457l-1.94-.486zm.108-.057c-1.245-.048-3.946-.29-6.836-1.044-2.914-.759-5.877-2-7.787-3.956l-1.43 1.398c2.29 2.345 5.677 3.703 8.713 4.494 3.06.797 5.91 1.054 7.264 1.106l.076-1.998zm-14.59-4.965c-1.092-1.228-2.799-1.579-4.29-1.206l.484 1.94c.909-.227 1.802.023 2.31.594l1.495-1.328zm-4.299-1.204c-2.984.774-7.727 3.27-11.156 10.646l1.814.843c3.171-6.823 7.428-8.927 9.844-9.553l-.502-1.936zM25.881 40.306a.15.15 0 01.056-.061.119.119 0 01.063-.02.12.12 0 01.063.02.15.15 0 01.056.061l-1.838.788c.646 1.508 2.792 1.508 3.438 0l-1.838-.788zm.243.012c-.584-1.41-1.347-3.566-1.631-5.913-.285-2.351-.08-4.802 1.166-6.893l-1.718-1.024c-1.554 2.61-1.749 5.558-1.434 8.157.316 2.603 1.153 4.948 1.769 6.437l1.848-.764zm-.43-12.87c.18-.36.193-.768.038-1.13a1.436 1.436 0 00-.685-.712l-.894 1.788a.566.566 0 01-.26-.288.667.667 0 01.013-.553l1.788.894zm-.647-1.842c-1.495-.748-6.762-2.794-11.345 1.678l1.396 1.432c3.617-3.529 7.75-1.974 9.055-1.322l.894-1.788zm-11.354 1.687a.525.525 0 01.553-.114.563.563 0 01.354.521h-2c0 1.38 1.64 1.874 2.507 1.007l-1.414-1.414zm.89.586c.375-2.058 1.578-6.225 6.324-9.017l-1.014-1.724c-5.454 3.208-6.851 8.041-7.277 10.383l1.968.358zm6.342-9.028c3.047-1.882 6.956-1.728 10.087.022l.976-1.746c-3.668-2.05-8.36-2.296-12.113.022l1.05 1.702zm10.079.017l.7.4.992-1.736-.7-.4-.992 1.736zM13.6 27.9a51.413 51.413 0 00-.703-.71h-.001a3030292537.973 3030292537.973 0 00-.053.053l-.138.142c-.119.124-.289.307-.502.545a37.106 37.106 0 00-1.73 2.087 47.254 47.254 0 00-4.894 7.865C2.233 44.649-.535 54.327 1.82 65.9l1.96-.4c-2.245-11.027.387-20.25 3.591-26.732a45.257 45.257 0 014.686-7.529 35.12 35.12 0 011.635-1.974 21.593 21.593 0 01.61-.653h.001L13.6 27.9zM1.82 65.898c2.354 11.667 9.41 21.984 19.208 28.822l1.144-1.64C12.77 86.518 6.026 76.635 3.78 65.502l-1.96.396zm19.21 28.824c6.307 4.374 15.004 8.478 25.57 8.478v-2c-10.034 0-18.337-3.896-24.43-8.122l-1.14 1.644zM46.6 102.2l-.078.997h.006l.012.001.043.003.156.009c.134.007.328.015.578.019.5.01 1.222.008 2.13-.038a42.475 42.475 0 007.379-1.054c6.009-1.394 13.81-4.515 20.968-11.417l-1.388-1.44c-6.842 6.598-14.291 9.577-20.032 10.908a40.299 40.299 0 01-7.028 1.005 28.97 28.97 0 01-1.99.037 23.053 23.053 0 01-.644-.025.173.173 0 01-.028-.002h-.006l-.078.997zm31.197-11.483C84.963 83.755 89.46 74.55 90.89 64.744l-1.98-.288c-1.37 9.394-5.673 18.189-12.507 24.827l1.394 1.434zM90.889 64.75c1.02-6.786.845-16.106-3.094-25.353-3.95-9.272-11.657-18.403-25.577-24.805l-.836 1.818c13.48 6.198 20.823 14.967 24.573 23.77 3.76 8.828 3.936 17.758 2.956 24.272l1.978.298zM34.5 15.5l.91-.415-.001-.002-.002-.005-.008-.016a18.557 18.557 0 00-.137-.29 41.482 41.482 0 00-1.857-3.427c-.602-.994-1.316-2.064-2.097-3.017-.771-.943-1.652-1.826-2.598-2.388l-1.02 1.72c.654.388 1.36 1.067 2.07 1.934.701.857 1.362 1.842 1.935 2.787a39.528 39.528 0 011.863 3.466l.025.052.006.013a.068.068 0 01.001.003l.91-.415zm-5.785-9.557c.068.04.1.092.112.117a.108.108 0 01.009.025.024.024 0 010 .014.102.102 0 01-.011.024.192.192 0 01-.078.071l-.894-1.788c-.687.343-.99 1.013-1.015 1.602-.023.57.208 1.266.848 1.65l1.029-1.715zm.032.251l7-3.5-.894-1.788-7 3.5.894 1.788zm7.068-3.536c-.116.07-.21.03-.228.02-.021-.012-.087-.066-.087-.178h2a1.8 1.8 0 00-.911-1.553C36.095.661 35.4.573 34.786.943l1.029 1.715zm-.314-.12l.5 12.9 1.998-.077-.5-12.9-1.998.078zm1.459 11.863l-2.5.1.08 1.998 2.5-.1-.08-1.998zM71.1 28.9l-.664.747.003.003.013.012.055.05.21.193c.179.167.43.406.713.69.575.574 1.258 1.307 1.764 1.996l1.612-1.182c-.594-.811-1.361-1.628-1.961-2.229a30.799 30.799 0 00-1.073-1.021l-.005-.004-.002-.002-.665.747zm4.9 5.6l-.824.567.001.001.006.009.027.04a25.3 25.3 0 01.536.852 40.01 40.01 0 011.445 2.636 48.077 48.077 0 013.566 9.495c2.03 7.879 2.51 18.393-3.625 29.103l1.736.994c6.466-11.29 5.944-22.376 3.825-30.597a50.073 50.073 0 00-3.715-9.893 41.966 41.966 0 00-1.518-2.769 27.232 27.232 0 00-.622-.984l-.01-.014-.003-.005v-.001c-.001 0-.001-.001-.825.566z" fill="#000"/></g><defs><clipPath id="clip0_274_70"><path fill="#fff" transform="translate(.5 .5)" d="M0 0h91v103H0z"/></clipPath></defs></svg>